<mxfile host="app.diagrams.net" agent="Mozilla/5.0 (Macintosh; Intel Mac OS X 10_15_7) AppleWebKit/537.36 (KHTML, like Gecko) Chrome/137.0.0.0 Safari/537.36" version="27.1.6">
  <diagram name="Page-1" id="8PEMLHE-unnlvWyTpwib">
    <mxGraphModel dx="2045" dy="1053" grid="0" gridSize="10" guides="1" tooltips="1" connect="1" arrows="1" fold="1" page="0" pageScale="1" pageWidth="850" pageHeight="1100" math="0" shadow="0">
      <root>
        <mxCell id="0" />
        <mxCell id="1" parent="0" />
        <mxCell id="6yVhWHThJ1yz743O0lcE-3" value="" style="rounded=1;whiteSpace=wrap;html=1;fillColor=#f5f5f5;fontColor=#333333;strokeColor=#666666;" vertex="1" parent="1">
          <mxGeometry x="679" y="32" width="503" height="831" as="geometry" />
        </mxCell>
        <mxCell id="BFcZCi9EVdHsKfas7D4n-71" value="" style="rounded=1;whiteSpace=wrap;html=1;strokeWidth=2;" parent="1" vertex="1">
          <mxGeometry x="859" y="730.25" width="137" height="57" as="geometry" />
        </mxCell>
        <mxCell id="BFcZCi9EVdHsKfas7D4n-68" value="" style="rounded=1;whiteSpace=wrap;html=1;strokeWidth=2;" parent="1" vertex="1">
          <mxGeometry x="1017.5" y="317.25" width="97" height="83" as="geometry" />
        </mxCell>
        <mxCell id="BFcZCi9EVdHsKfas7D4n-59" value="" style="rounded=1;whiteSpace=wrap;html=1;strokeWidth=2;strokeColor=#FFD966;" parent="1" vertex="1">
          <mxGeometry x="748" y="85.32" width="84" height="78" as="geometry" />
        </mxCell>
        <mxCell id="BFcZCi9EVdHsKfas7D4n-87" style="edgeStyle=orthogonalEdgeStyle;rounded=0;orthogonalLoop=1;jettySize=auto;html=1;exitX=0.25;exitY=1;exitDx=0;exitDy=0;entryX=0.5;entryY=0;entryDx=0;entryDy=0;strokeWidth=2;" parent="1" source="BFcZCi9EVdHsKfas7D4n-55" target="BFcZCi9EVdHsKfas7D4n-63" edge="1">
          <mxGeometry relative="1" as="geometry" />
        </mxCell>
        <mxCell id="BFcZCi9EVdHsKfas7D4n-89" style="edgeStyle=orthogonalEdgeStyle;rounded=0;orthogonalLoop=1;jettySize=auto;html=1;exitX=0.75;exitY=1;exitDx=0;exitDy=0;entryX=0;entryY=0.5;entryDx=0;entryDy=0;strokeWidth=2;" parent="1" source="BFcZCi9EVdHsKfas7D4n-55" target="BFcZCi9EVdHsKfas7D4n-68" edge="1">
          <mxGeometry relative="1" as="geometry" />
        </mxCell>
        <mxCell id="BFcZCi9EVdHsKfas7D4n-55" value="" style="rounded=1;whiteSpace=wrap;html=1;strokeWidth=2;" parent="1" vertex="1">
          <mxGeometry x="861" y="218" width="128" height="89.25" as="geometry" />
        </mxCell>
        <mxCell id="BFcZCi9EVdHsKfas7D4n-95" style="edgeStyle=orthogonalEdgeStyle;rounded=0;orthogonalLoop=1;jettySize=auto;html=1;exitX=0.5;exitY=1;exitDx=0;exitDy=0;entryX=0.5;entryY=0;entryDx=0;entryDy=0;strokeWidth=2;" parent="1" source="BFcZCi9EVdHsKfas7D4n-50" target="BFcZCi9EVdHsKfas7D4n-71" edge="1">
          <mxGeometry relative="1" as="geometry" />
        </mxCell>
        <mxCell id="BFcZCi9EVdHsKfas7D4n-50" value="" style="rounded=1;whiteSpace=wrap;html=1;strokeWidth=2;" parent="1" vertex="1">
          <mxGeometry x="804" y="593.25" width="247" height="97" as="geometry" />
        </mxCell>
        <mxCell id="BFcZCi9EVdHsKfas7D4n-46" value="" style="rounded=1;whiteSpace=wrap;html=1;fillColor=#f5f5f5;fontColor=#333333;strokeColor=#666666;" parent="1" vertex="1">
          <mxGeometry x="-36" y="115" width="576" height="594" as="geometry" />
        </mxCell>
        <mxCell id="xa00FXEDvekAq0uYWlAG-4" value="" style="shape=image;verticalLabelPosition=bottom;labelBackgroundColor=default;verticalAlign=top;aspect=fixed;imageAspect=0;image=data:image/png,iVBORw0KGgoAAAANSUhEUgAAAMgAAADICAYAAACtWK6eAAAAAXNSR0IArs4c6QAAAERlWElmTU0AKgAAAAgAAYdpAAQAAAABAAAAGgAAAAAAA6ABAAMAAAABAAEAAKACAAQAAAABAAAAyKADAAQAAAABAAAAyAAAAACbWz2VAAAN6klEQVR4Ae2dWXLkKBRFnR29L1N7cn1b/V3ek6mVublZ0I01ZDI85usIR2riDQeuAEmpfHnhHwmQAAmQAAmQAAmQAAmQAAnUI3CTcvXr1y91u93ePXvKLuuvr6/f3nb98+dP7a1Pvwg2Nkn3+WJYve4S/2+ft117y/dFj+VyHPcsaqxnCcQThYoN1lT0P0YoW2y53o93YvBOFqpCzBo+nHhm5FqB4amLJIHkCGMfxQxCMTw22yOofX4t18EW/imY9FqIFohtDP5QKt27V9JU5o9Rh16lmHh4RBYpmHiMUQL5+Pj4NC5UvJuwEqP2JqMIxK8FisWncb0cJBDTANwEXF2bktkzokhGFIhfW1YsnPT7UOzyXyfbDpvM+Lpoz+E7xOQWDc7fxuWyBMAcdQzuZP+d9VOB2GHV91KF16xIVGE3NL8jYIXybur8i0L5A+ehQCwkteNYZRVntCqO6OSUAMRCoby8XArEiMPNO04B1tjYoveqkddIPlYXyqVATCWqDipSQagdxLF8CFYo93nKSjBOr2JhaAUgHYHQErGYqzW/YUf6xlmHvCRwXdoY8UrjZTJPdvz9ZH8vu5VEIEb0dztm6Pa+UiVLsPNt2N5kCYanQ6zOeg+/bsSWbSXzQkAGUcdw5mHwQSAYLmQwG62o4oWA7CrDxZxp5yYHgWTjGs8ALwQI1Bl6kxlPrgeBmERfBXgNZQKVO1TAnQYLjvbeieo0xOiwDgKJtjBHATVHGn1kYYQyzZDrTCBLNpaZJ5otZIPeZIYh15lAWvDsweeSJ4aS4GcQyZlAdElotL0WATsvGfZy+plA1qpBZluDwLCX0ymQGs2DPkAAIvkaba53EAgewWB9kkApAvYKlyplX9ruQSDSDmiPBPYEMC/Zb+t1/SAQ+2YR3WvAjGsKAsPMSQ4CAX4Os6ZohL0nMYRITgXS0/upIFbz/+PZv2kNuvcWwfgOBPAc3HbY2tGGy++DoEFiQtU61tAvN+HqiIlXtY6X/uMIYD5i6k78S2xxUVwffdqD4PAe5iLoPa5D555ZCFiRbD3mcykQBNuygcJ3aO/RI1jGFEfAikTFlSp/9EOBoBfBUKt8GAcPeMvfdtjKDVMTgEh6S/ChQBCsFUnNoY5+e3trIcre6mbFeLqbtD8ViBXJVmO4BR8Ux4q6+D/n3oZaQQLxRFLszM45x/+NZPUlIxJ84Ur1wCFYIAgWwy1zhr8J9yb3eQ7nHD00h35i6GU+EiUQhw+NWUAod2FgSAXhOdv8JAFLoIuXaVzeKAypJnvW39zd0ADVa9i1w6n7Mtb5RwJnBGx70mf7am3LEogL0hsebdi2Hz+yh3Ck+BlJ4H5Vy2tfkcXzDxcRyD4MCmJPhOupBNCLmBMu7ovpVBs55ZLmIDkOWZYEYgkEDN1jTQYfT4EEo+KBDQk0m7BTIA1rna7DCbTqRW7hIfZ9JK6kCUDUGVmqjLIsGkDAXP2sfkugyCQ9INdeD1G9Bsa4Xl7sCVDXZMEhVk3a9JVLoPpchALJrTKWr0pAYBgdFS8FEoWLB3dAoGovQoF0UOMMIZqAii6RWIACSQTHYu0ImGHWay3vFEgt0vQjSaDaMGsmgWjJGqCtvgnUmqzPJJC+a5TRSRNQ0gbP7E0jEPu0pz5LktvmJLD/WkWJLKcRCOAIfxW4BG/aFCRQY5g1lUDYiwi2vjFMqdJhTiUQwMJ33NmTlG42/dgvPcyaTiCoOtOTbFYkup+qZCQlCJQeZk3zuPsj+PYsox4dk7PP3rgqZj8ntgXKFn0T5xICKd1IhL6LUjrMae2X/J7IlEOsaVsCE6tOgAKpjpwOpQmUnIdQINK1RXstCKhSTimQUmRptyqBUpd7KZCq1UhnoxGgQEarMcZ7RUBd7cjZToHk0GPZbgjYe1Hi8VAg4khpcCYCFMhMtbl2LqpE+hRICaq02YRAiStZFEiTqqTTUQhQIKPUFOMMIaBCDoo5ptq7edH97R4JcMngtwp/e0E3+7EULwYuksCdQFGBeKJQD3hDOP7+94+PD/c7htuDctxFAt8IlLjUW0QggcL4ltx+Bb2NEco7vviEL0Dt93OdBGoQEJ+DGHHgdzo+TfBKIgErlC+ITsIebZBADAFRgZgz/icadEwAocdCdBBf6PE8jgQkCIgIBGd3iMMEpCSCurIB8VEkV3S43RBQ0hREBIKze4ngzpKlSM6ocJsjID0UzxaI7TlcfFU+rUhUFWd0MhQBtA3JgLMEYoc7SjKgUFu21wo9nMetQ0D0ze/JAkFXJq3W2Dps0XvFxsjj6xOQPHkmC8SkreqnfvAoerY4WOeGYQlIXcxJei8WnLfuPXY1p3frLVZVC6f0eU1A4n1ZRe6kX4dcbI8qZpmGhyVgT+I6J4GkIVZnvUdO/iw7NwEMwbecFKMFkuswJ1iWJYFYAjiZmzarYsu546MF4grykwRGIZAz4okWiHH2OgoYxkkClkDyUCtaIEROAiMSSO1FUgSiRgTEmEkg5cZyikBImgRGJRB9YzlFIHpUOoybBGKHWikCIWUSGJlA1ISdAhm5qhl7EgH0IqH3RqIFgpcoJEXFQiTQEYHQoVa0QDrKkaGQQA6BoKFW0tO8Nb5/npM5y5JAKIFnT/wm9SAcZoXi53G9E3g21ErqQZC06UW+ekjeilW3jMVCVi1joO90Ao96keTvg8CoaRh4m0nTvx7euogrIoaFagqCzpMJ2HZ82lkkDbEQiWmY2nzgv9kfh3rN0E/n+OoxlGSBgFDLBgrfPfQe07WUdRM6fQwlSyDoRTDUasAUP5GwNfBLl4sRyBIIWFmR/FORm357e2shyoop0lUjAmrvN1sgMIizeY3hFnxQHPsq5HpJAiICQYBWJMXO7JxzlGwGtH1FQEwgcIDhljnD34R7k/s8BwK8SoLbSaAUgeT7II8Cso15wxtQzDXm1JcJQxi4UqUf+eI+EihJoIhAXMC+ULAtQCwax1EYoMC/HgjcWgSxfxZ/9F4is6dsUQX0eUIA04P95qI9yN6ZWx9dEC4Pfs5D4GreLDpJnwcXMyGBPwQoELaE5QnYOe92BoICOaPCbUsRsBeTTnOmQE6xcOMqBK7mHi5/CsSR4OdyBB4NrRyMJlexnHN+kkArAkYcP0KuplIgrWqIflsQiH46gwJpUU30WZLAXQS+g5Cewj/eX6ZAfBpcnoJAjiD2ADhJ3xPhOgl4BCgQDwYXSWBPgALZE+E6CXgEpp6D2PdVue+jKC9vLpJAEIEpBeIJQwVR4EEkcEFgOoHwuxkXNc3NSQSmm4MEfGsxCRQLrUlgKoGg91izGpl1KQJTCYS9R6lmsq7daQSCifm61cjMSxGYRiAGkCoFiXbXJTCTQNatRWZejAAFUgwtDc9AgAKZoRaZQzECFEgxtDQ8AwEKZIZaZA7FCFAgxdDS8AwEKJAZapE5FCNAgRRDS8MzEJjuad7USgl5R9KVbT5BfEVm/O3sQcavQ2ZQkAAFUhAuTY9PgAIZvw6ZQUECYnMQPE27e9xc2bjxIq/fXg5a8r1Fnl0ukoA4gSyBeKJQDyKDcPz97x8fH+53CLcH5biLBKIJ7E7G0eX3BZIEEiiMva9v6+htjFDec64efTPIFRIoQCB6DmIvaX6aWJREPFYoXxCdhD3aIAFJAlECMWf8z908QywWY/cT4hMzSENLEjDzW9E2FCQQnN0hDkNclaQO8VEkJQlPb1tLZxgkEJzdjWMl7fzMHkVyRoXbQghIT9Dh86lAbM8REp/YMVYkSswgDS1BQHp4BWgPBWKHO6oFXdtrtXBNnwMSwNXQEmFfCgTzDpzJSzgNtdmi9wqNjcf1Q6DkrYJLgZj0VQcIFITaQRwMoVMCJcWBlE9vFGJo1br3cPWBoZbpSbRb5ycJeATw2NLmrYsvngpE3Eu+QZVvghZmIlC653CsTgXSS+/hguQnCXgEon/K2SsbvXgQiL1yFW2IBUigMIH7U+Glh1T7HA4C2R/AdRJoREA7v3Y49d+6217j8yAQM7x6reGYPsYnYBruD3NG1+Nncp3Bo8u816W4hwQWIXAmELVI7kyTBJ4SOBPI00I8gARWIXAmEL1K8n6eta+O+L653C+BM4H0Gy0jI4HKBCgQAxyXEStzp7tBCBwEsmJj4fBqkNbaIMyDQBrE0NTliieEpsAHc34QiL3xowfLIyVcPLqAG11bSmGWWYPA4U460sZZ1dxRV5MiaPJMz6Qsp0/rVCDoRcx3MLpI3g6BtEQwtneUMEUbixA4FQhyx/DD9CJ4m0nTPw6BmuJf3vlhDuKI2LOtdustPm3v0cI1fZLAncClQLC3ZQOFb/YebKWtCTwUCHoRDLUaBFn8u8YNcqLLAQk8FAjysSKpeadZv729tRDlgNXHkEsTeCoQBIChTo3hFnxQHKWrnPZjCAQJBAatSIqd2TnniKk2HluLQLBAEBCGW+YMfxPuTe7zHAiwVtL0QwKhBC7vgzwyYBvzlvmCOQgDV6r0I1/cRwItCSQJxAXsCwXbzI3FZ+/y1TiOwgAF/o1AIEsgLkFveLRh2/59uuwlHCl+jkZARCD7pCmIPRGuj0ogapI+apKMmwRSCVAgqeRYbgkCFMgS1cwkUwlQIKnkvpfT31e5NgsBCmSWmmyQxwoXYygQgYZlG4oWMDWMCeGnKbrNmwIRqppVGozDZU4Km1ue+ZMCEapd9CKLiOT+7JwQtu7N3LqPcMAA3a90mUdvpvqtFT4iNGBjZMgkQAIkQAIkQAIk0B+BfwFmIWNnkajsiAAAAABJRU5ErkJggg==;" parent="1" vertex="1">
          <mxGeometry x="977" y="607.75" width="52" height="52" as="geometry" />
        </mxCell>
        <mxCell id="xa00FXEDvekAq0uYWlAG-1" value="" style="rounded=1;whiteSpace=wrap;html=1;strokeWidth=2;" parent="1" vertex="1">
          <mxGeometry x="1002" y="85" width="102" height="79" as="geometry" />
        </mxCell>
        <mxCell id="xa00FXEDvekAq0uYWlAG-3" value="" style="shape=image;verticalLabelPosition=bottom;labelBackgroundColor=default;verticalAlign=top;aspect=fixed;imageAspect=0;image=data:image/png,iVBORw0KGgoAAAANSUhEUgAAAMgAAADICAYAAACtWK6eAAAAAXNSR0IArs4c6QAAAERlWElmTU0AKgAAAAgAAYdpAAQAAAABAAAAGgAAAAAAA6ABAAMAAAABAAEAAKACAAQAAAABAAAAyKADAAQAAAABAAAAyAAAAACbWz2VAAANU0lEQVR4Ae2cC27cuBJF4/c2MshGwgaykGQlaa9kZvYRwOyNBPNWMq+uQxmy3D+1qkhKOgTapD4kqw7rimR//OkTCQIQgAAEIAABCEAAAhCAAAQgAAEIQAACEIAABCAAAQhAAAIQgAAEIAABCEAAAhCAAAQgAAEIQAACEIAABCAAAQhAAAIQgAAEIAABCEAAAhCAAAQgAAEIQAACEIAABCAAAQhAAAIQgAAEIAABCEAAAhCAAAQgAAEIQAACEIAABCAAAQhAAAIQgAAEIAABCEAAAhCAAAQgAAEIQAACEIAABCAAAQhAAAIQgAAEIAABCEAAAhCAAAQgAAEIQAACEIAABCAAAQhAAAIQgAAEIAABCEAAAhB4nMDT41WpeY3A169f0+T6+PjL5JoOx9d1nPVnlE6j8lDMKvz8+fM1V5nkSwCBOPAcieFHaS45NPtIE9kqDULKCOcRhO/rIJD3PG4edSSGm7aWG7LliOZeWpP7EMgEyPSwCKL1zDA1y+P42RphlrlBEoGcAbRhUZzx9vUUYrlABoEUMDsUxYWQ+PRse5fjpYt7O79rgUz2E2lvg3/D32zXT3sXyy4FMpot0o0g4fJvAlqC6e3k4+/D/fzdlUAQxuLA3p1QdiEQhLFYGNMGdiOUTQsEYUzj2v1480LZpEAQhrsQbjW4WaFsSiAI41Ych1/f3FvEmxGIieNowz984h0eCXRwlcBmhPLfq26u5KKJ48VM/bYSc/dgZvr8+fPTr1+/8tqdXfUMUpZUEgepXwKrnk1WK5ANLqnylRhPV66t4dJqRbI6gZRZQ3uNtQRNLhF8svy17PE7jcJBTSf9sfTFXkmFjtPBw/ea/q1KIJ3PGrkMnKsQ5gZDEU4a1dPDpKe0qtlkNQKxgddeI/U00mZLttezbOr5yTgSTS9i0e9QDuLWe+peIGVwJY4eUi5G6Ck4lHuw624bRmL5YpXS3RVjbux+ydW1QDoSR7b4WK0orsW2MT7a9ZYzS9ci6VYgHYgjW+BsUhTm14dUhKLzLcTSrUi6FEjjp1q2INmNMKSIcWooFDE/jm3podydQBqJI9tgnHocoJZB0mAsuhNJVwJpMCCKv+qDYn6mEvjKtVkeUiqFPJyw/KRyS/FWHpfq4zFi/aHYjUAqD4JAZHtpMJSHpyKKZB0tefcoW30JRm+TqlwtVR6fbkTShUAqw88WVbWFoY1vspdnelZjtWeWimPVhUiaC6QicMXTodaT1/xK1l+EMOTHOFUPpIpjVt23MViVmwpkq6Ar+jUez+rBVMnP6n6NoTb7PUgluPL1YLPGX2OnI8vm14u1/y2yjwttV/8Nhn7vod99mD3pgk0ep+XXyfr6x6OxuW00mUEsiJIZqkCKTNka19NHeXgqPtVYUt3yJdsN1fyWMZXGUw86+VY1tRKIxJECPVWAHAPbf9d0pQB51+cdB9UDyjhEjmuTLzj+5w7QrrcYxKM1mOwVlaqKozihmaO3VN0meygdDMJzEIhUBBjU/Plmq+5BijiiBi6bi99tkP4672rM2eLTt5jWF7X6h63dk63d/17UyszKwfsS+VT1t+7VBBItDj29am/kgn2aGZpnb68eULIiWCTatFcTSRWBBAdSk7WpAsEGSmvu3pMCqvq7QBVEUsWn8D2IiSNZBIUtq8q6t3qQFtFX7/fBDqP4XzXHxuZoN0TtSV5KbF21YenFcIGYgVGD02zmCJ4Rl47pufra4KZzF6LPBYskKrbesIQKpARSxMA0E8cbufUVwoPpEpJAkUj4x0v9epwP24OUJ9afHkZO2mgqjkC/Jm66H2rDXmXdfs7ywD1J6B4rcgaJeGI1FUcZ+HQuAJzOZWtHr6iUohq+p93AmSQi1l5derrHsbn3lGnP3WgDHGLvHP/Mtxe7P82pc+Peg66bb3l6XwDHHh4w+mqKN0OhC/mAOGoGcReHAEwDqNFxcupXA/okYZwTh/qw80fdY0Uv35tt1ifMvPwZN/vDhJfGJzzK7gIpTz0P28ZthDwdxh3cU3b0bZY/EorZFxFU97jtfk95IET44/5gdhVICSBvI/WEVYBsJj3izyN1LgBLF85XPV38yc6dur+r5SoQc9ZbHFpmHJwhLmnuy5LKpe6SJ6cHCw8fHDC8LiE9/Jna4rrUchOI4/Jj7PCSYBq3003ZcSboxqeFhoSIZKFNb9VdBBK0tJq1Tn/zaMMFE1femnvFJ+8HodubES4CsUHzXlr1uu9ICwM0L6yv6kvbSGqkp1Rm1exs04tHe14C8bCFNiDQHQEvgXivI93fjXAinxe2kxbWV/WlbWQ10lMqS/TkbJPLss1FIGUdmZ0ddH03wtm2h5uzYEgPV95gxd73ry4CKePmothJDFT5zv+kz24PSzB1a9+DhnnvX/XRwPFBWz5UcxNI0LsRMtgd4AcK95843X/rxTuXbB49WHj4cNG5OReCBO/6oHYTiMAEvRvR034kzwmAS/c+EhiP1LnUfw/niz8egh+74/7RgKtAiqWuCi5tbm0/In+OxbebmWcweS4/bhp+4QbzJ9klb3EMD+gLvT522l0ggUutJUuTx+hMahXf8uT0o4cSyb+XhKIgKq9/rQOvYPKy/VGfh3pe/gztKY94MMf982obXAV0kuWOSR8gHhzbm91UCeiIAZYtuRiUSu6duS9B5hoYxC8sLtxnkBGwCEXrqSrhtUw5sPNkbesVlXJUw/e0GyQOdR0Ra68uhQkkcKnVVCTOy6x74srrHs0e2auxue1EiiPSrzCBCKAZfrQs28s7NRWJORP2xPIG1UN7geLQ0uoY6WOoQIrhUcHUTCTliZUjB8a57WZ7j0BxCFFUbL3hDxdICabDW4++hWYiqTE4Xqiin7KX7IwWR4mtS927nA8XiKwsjkSpvYlIgn1yGdzSSBT3qzZWEMfxqgFOF8P+cdzUvsB/HKau9E/R9A/E/mf9/DPtO+q4+JSs/T+i+ljYbpOl1VbEIfZPCwdgdnWDF/H5yNiO6kFRwaexf/eWwz4buGbAlsQhP6ssscZAbWlysOM8PudcnvU1Dqe+myxjbthe3abyoAj7ENVi53jDZ/fL1QVSPIgePImk2geKZT8SLfx7Bz/bjYdi0711Ft1nrId9YFrU0PXK0TFztvens2crnBRU66ZGEFddcplfR/Mr6ilqTV9N1ZdVlcax6hiOCVfbpI87VVmbadtUS6BJx4FJm/cnbagD+3hrumzca/j11mcpKIi+T09GHpeHwZ+RfVjbzcQhv5rNIAPUyk/cqrAr+ZaNpfxSXiWVWUOzZArusOp4nfOluUBkVKVAGvx/VsEC6jiciMyLb+rCe9mVrc2qwpAT5s+LZUnl4NRcHPKvC4HIkMoiUZdVB8D8S9anXl9KbtnslK3GyV7aa6hcLRX7JY4aqerYXHOoG4HIyAYiUbdNBqP4qv4lmCGlUsjDCctfBaHj2qJQn0UYP6yYdFwhNRmPS351JRAZ2Ugk6rqrgZFBLVMDYcjd7sagO4GIUkORvA6S/tTao6ivnlIjYQhBd+KQUV0KRIaVgaq15lWX05TtxGkvQmkoDHE/tFg+quNbqVuByPAORDLwe7ZC9Y3x0Hlk3lgYcq1bcci4rgUiAzsSicxRklhWuwQrPOVCzY23+juXuhaHDO5eIANVG1gtt9Jw3EmezY6TvbqeXUazhLAl/WmcxOvQ2Ia7ul+NQOSNDfTRMj35ek3PxbBmghnNEMls+WIv5T2l5zXt61YlEI1yCQDNJmtJ2Qw9FWNV1vLsNVf50XRGCGoqPdpehXrZ+pA4lK8mrU4gA9kVzCaDqffm+caN6cb1ni+vatYYg1ytQOTEBkUyHputlLvfiF8DvWqBDI4hlIFEV/lqNuLXqDX7Pcg1o+Zea/gbjLmm7uV+Lam+b8HZTcwg44FgNhnTqF7O1uPqNuLXKG1OIHK2iETFnt8Sln1bSdkc2ZQwhoHZpEAG5xDKQCIsz9byJoUxENu0QAYnEcpAwi3P1tKmhTGQ2oVABmcRykDi4TxbzV0IYyC0K4EMTiOUgcTdebY7dyWMgcwuBTI4r7yIpcfvLI3NbFHO1umzOl7b10Nks1favUDGIItY9vzOVy48djlbjGNhKCOQgcQoN6EkO9RrD2LJ5qcSovjN4d1fBPIOx8eDjYolF08Rxcchf3cGgbzDcftgJBjdvIa9Sy5ePSvf836icJiVIZBZuM7f3JFocrEQMZwfqtlnEchsZPdXKMJRhXSmlmafcUrjAyvnybEOT6NzeVRmZhjDoAwBCEAAAhCAAAQgAAEIQAACEIAABCAAAQhAAAIQgAAEIAABCEAAAhCAAAQgAAEIQAACEIAABCAAAQhAAAIQgAAEIAABCEAAAhCAAAQgAAEIQAACEIAABCAAAQhAAAIQgAAEIAABCEAAAhCAAAQgAAEIQAACEIAABCAAAQhAAAIQgAAEIAABCEAAAhCAAAQgAAEIQAACEIAABCAAAQhAAAIQgAAEIAABCEAAAhCAAAQgAAEIQAACEIAABCAAAQhAAAIQgAAEIAABCEAAAhCAAAQgAAEIdELg/+W5Ne8I+WeQAAAAAElFTkSuQmCC;" parent="1" vertex="1">
          <mxGeometry x="1000" y="621.75" width="24" height="24" as="geometry" />
        </mxCell>
        <mxCell id="xa00FXEDvekAq0uYWlAG-5" value="&lt;font style=&quot;font-size: 16px;&quot;&gt;VLM&lt;/font&gt;" style="text;html=1;align=center;verticalAlign=middle;whiteSpace=wrap;rounded=0;" parent="1" vertex="1">
          <mxGeometry x="971" y="662.75" width="64" height="30" as="geometry" />
        </mxCell>
        <mxCell id="xa00FXEDvekAq0uYWlAG-6" value="" style="shape=image;verticalLabelPosition=bottom;labelBackgroundColor=default;verticalAlign=top;aspect=fixed;imageAspect=0;image=data:image/png,iVBORw0KGgoAAAANSUhEUgAAAMgAAADICAYAAACtWK6eAAAAAXNSR0IArs4c6QAAAERlWElmTU0AKgAAAAgAAYdpAAQAAAABAAAAGgAAAAAAA6ABAAMAAAABAAEAAKACAAQAAAABAAAAyKADAAQAAAABAAAAyAAAAACbWz2VAAAKU0lEQVR4Ae2djXEcNw+G5S8pJJ2YLiWVCK4kXydHdZJOFCCjnZEvJx65y1/wwQx9t0sSBB7wPd5KHvvlBYMABCAAAQhAAAIQgAAEIAABCEAAAhCAwOwEvs0eoMYXPpqF+t3+wJYm8HYXvdxdc5lBIOiYm7Z32hYMROtsDXtCQLQfUezNwPYAdkcg6DUnxt7CuP9glLs9MuTytyGr/rqo6OVf2v7QhkHgIBD0jT0jR23DbLRARDN/HZY9C89OIGiAw0UyCpLowvfHKtcwebQHbqM26agTxMTxOipp1l2OwB8a8ZCTZIRARJNFHAoBKyIQdHR3kdiCvc2OUAwCZwl03bP/OxvlyXlych7TIHAQkONNj9euatSEOD16VNX/Gt327e8dWUqltWIlP7gZQyBUWPamPn5U8DOVCzs9zjbRuUEb5oeAaCpn94MJxJ2dgWEggjsSJHQQsNpajc/sDZvrxkQzOQPBDQAS+ZJA0J4ze8PmNbfeP8UqSehnyWDGLksgauRnav26bMYPAr/pvdJPiQduuOWYQOn+sD3V3GY9QWLzzFlgNgJT1ryXQEJhNd4KxzN8PwKhR8q9BNIjF9ZYm8CUH4oIZO1NRfSNCSCQxoBxvzYBBLJ2/Yi+MQEE0hgw7tcmgEDWrh/RNyaAQBoDxv3aBBDI2vUj+sYEEEhjwLhfmwACWbt+RN+YAAJpDBj3axNAIGvXj+gbE0AgjQHjfm0CCGTt+hF9YwIIpDFg3K9NAIGsXT+ib0wAgTQGjPu1CSCQtetH9I0JIJDGgHG/NgEEsnb9iL4xAQTSGDDu1yaAQNauH9E3JoBAGgPG/doEEMja9SP6xgR6/v8gjVP5xX3Qq9ePO/Yea0vg+Ld1pe0y/b17FIgV6RBHf6J7rviZt/F3Y96+YolW5nOx3BRqkUSMvSwSa1aYngRihUEcWWVvOshqEJqu0NG5J4F0xMZSTwi4+aDyJBA3RXmy+ejuSMCTQDpiY6knBMKT/mW6PQkkLkPdf6BuauFJIFP+/xL+tfAwQze18CQQ0VLFh+XiZm8C0nvBVut5EogxOn6j24oXfp8TcFUDbwKJWr9v2lwV6fmenGJE1Ch+aBNtbszjXzWx4oi2qC1ow9oSiB/uj9e2q3X27lUghjF+NHuPQeAUAW9fsU5BYBIEviKAQL4iw30IKAEEwjaAQIIAAknAoQsCCIQ9AIEEAQSSgEMXBBAIewACCQIIJAGHLgggEPYABBIEEEgCDl0QQCDsAQgkCCCQBBy6IIBA2AMQSBBAIAk4dEEAgbAHIJAggEAScOiCAAJhD0AgQQCBJODQBQEEwh6AQIIAAknAoQsCCIQ9AIEEAQSSgEMXBBAIewACCQIIJAGHLgggEPYABBIEEEgCDl0QQCDsAQgkCCCQBBy6IIBA2AMQSBDw/K+7W9ohkTtddQjEOm7m9OJVIKK4+W+h++45+0+LjLsr8/gV66YVQhz9t6kxN/ah/9LtVvR2goiiCu1w4fkJgYN9fDJumW5PJ4godU6O8VsvaAjWXJgngXx3UREfSbj5oPIkkOBjb7nIwk0tPAnExc4iibkIeBJInAvt1tG4qYUngdjP4bE5CLzNEcb1KDwJJCoOa9hYAq5+YehJILYtrDjR3mBDCERdVYas3GhRbwKJyumHNhMK1peAMTf2rszbb9KP4oi+sWYW/v2TP1oSiC2dj/TtVSCfmbot3ucked+GgLevWG0o4XVbAghk29KTeA4BBJJDiTHbEkAg25aexHMIIJAcSozZlgAC2bb0JJ5DAIHkUGLMtgQQyLalJ/EcAggkhxJjtiWAQLYtPYnnEEAgOZQYsy0BBLJt6Uk8hwACyaHEmG0JIJBtS0/iOQQQSA4lxmxLAIFsW3oSzyGAQHIoMWZbAghk29KTeA4BBJJDiTHbEkAg25aexHMIIJAcSozZlgAC2bb0JJ5DAIHkUGLMtgQQyLalJ/EcAggkhxJjtiWAQLYtPYnnEEAgOZQYsy0BBLJt6Uk8hwACyaHEmG0JeP7X3cNHVY9XD0WOmoQ1zBmBd82npMmF/IPOvWkrWW+1saL5eTPRhErr0JyBtxPEIL82pzZ+gSNHyxdrSMDbM8ixcRoim8a15SrTROM0EE8C2XGz7PSBMESCngTyfQjB8YuG8SH4jcDTM8iuG8Xyjtp6W+i94Ij1PAkkKsAwAuIGax5c7Svd8X6DtF9ePAlki4I9SDI+uFfrVlBH24miFrwSP+86uKRJifOPsUFfS9bwMFY+cq/9EtThTdvsjGrnPcxfKWg5GanNK11r5fEnMSWnrcQwmchKnaWb0Ip01kQnlq632vib5hi01TZRhyuxqJ3/f/x5fAaxIh/2erxx8ho1jzdtoq22iTr0xqs2o2b+Sj+VrFhYPwKiS5XWaIbxzQl5+kVhc1hOFxDNi5Pji+IikC/AbHQbcSSKjUAScDbokg1yvJQiArmEb/nJnB5PSohAngBy3C2Oc6uWmscf81aD49zRldMjKhv7cbO9njVbP5ydrPPihbnZUxFINipXA8OFbH7o3Hhhvk0VbUHbFTOBNjcE0hzxlAuEk1F9Oznv8zTRiyun12dfbt6/ayYlTdxkPmcit8J6WO2kQipn1n20b8yPK3uUZOqeuMp+vmRsg6X4P+q7kkU4sd6jGI575s+VHYnlvoqr7OdLJrcOx7gr9bC5h58ar0H9dTN+zNsN9ZYLiWb9WinzqH5q/ICgKBwe0otwMbiAgOjY2uIoWL7OUE6QOhzx8iuBm17WEsdP9WUnxxBDIEOwu100aGbv2uy1hpk4pIajsz74inWWHPPuCYjeqHVqmO/uzxu26L1xgtwT4foMAdFJtcQR1dcU4tA4XjhBjAJ2hYDo5NriuBJP1bmcIFVxbufsphnXEoc9b9jJMZUhkKnKsUwwQSN912avNczEITUc1fbBV6zaRP37E02x1qlhtKZ53rBg7o0T5J4I1ykCop21xBHV19Ti0Ph4SDcIWBYB0VG1xZG18A6D7PtqSbvtAGVgjiW1qD1WBuY97dK24UtA23isHYGSWtQcK+1SWtuzbfhS0GtnPHf0pbWoMT7MjeRxdDM/pMvjkLm7GIGo8U7/MD6aadAAznwK2TysPoEztTgz51Y/dJ8eg6Z1FrDNxeoSOFOL0jlSN2T/3uzTpBTyMR7YdffHwbXVq5t6favLPentpr0hOSKvM+YNY1SCQEj0Xe3ieeMCwVafWPg9fzrXYlfrA/DC9qo/9bf6LpMe7cQKyRF0rkggatB2cvytDbtIoNYnFn7GnxpWA7m4H6ae3vsEMRicIlNviaLgfupoKZqx2OARAonKCJEstlEehGtfqf7/4D63KhGwhzq+Jq3HwOoWKu0B3DwhINqPSNZhYOLYykZ8xfoMOOoFX7c+E5n3vT1v/DlveL4jE02Pk2ReBlYfbAICojEglLkYhAn2BSHcERC9toZYxjGw542gbWuz7/+zm9wF+P3umss6BN4+uYn63hoGAQhAAAIQgAAEIAABCEAAAhCAAAQgAAEITE/gHwzzU/wMweI0AAAAAElFTkSuQmCC;" parent="1" vertex="1">
          <mxGeometry x="1011" y="91.68" width="40" height="40" as="geometry" />
        </mxCell>
        <mxCell id="xa00FXEDvekAq0uYWlAG-8" value="" style="shape=image;verticalLabelPosition=bottom;labelBackgroundColor=default;verticalAlign=top;aspect=fixed;imageAspect=0;image=data:image/png,iVBORw0KGgoAAAANSUhEUgAAAMgAAADICAYAAACtWK6eAAAAAXNSR0IArs4c6QAAAERlWElmTU0AKgAAAAgAAYdpAAQAAAABAAAAGgAAAAAAA6ABAAMAAAABAAEAAKACAAQAAAABAAAAyKADAAQAAAABAAAAyAAAAACbWz2VAAALjUlEQVR4Ae2dXZbTOBBGHc6sgZnddLMqeGvmDVZF2M3AIsioHCsncduOJJcslXT7cEjb0e8tfVaVJbuHgR8IQAACEIAABCAAAQhAAAIQgAAEIAABCEAAAhCAAAQgAAEIQAACEIAABCAAAQhAAAIQgAAEIAABCEAAAhCAAAQgAAEIQAACEIAABCAAAQhAAAIQgAAEIAABCEAAAhCAAAQgAAEIQAACEIAABCAAAQhAAAIQgAAEIAABCEAAAhCAAAQgsIvAaVfuyMx/f778iMxCcgg8JfDr++nT00SJCf5KzJeU7TIMr0kZyQSBQgQ+FKqXaiFgggACMWEmGlmKAAIpRZ56TRBAICbMRCNLEUAgpchTrwkCCMSEmWhkKQIIpBR56jVBAIGYMBONLEUAgZQiT70mCCAQE2aikaUIHLrVJLaTbqPYOTYP6W0TqG07UtUCuZyGn7+/nb7aNjmtjyHw8cvl63AZ3mLy5EyLi5WTLmWbJ4BAzJuQDuQkgEBy0qVs8wQQiHkT0oGcBBBITrqUbZ4AAjFvQjqQkwACyUmXss0TqHodpCa6/3y5vP5xz9SfLsOLb5csavnFTFmzkfOs23g6bXwikA07iigubtFKhPDH/Sc/08f14Hr8Oh5chvHz4+fLm4iGRc6Rivn/cLEWTCjCkFcUOVH8EHEsJNk8NeZxwnJiuYwrw5up+bJmAghkZh0Z0KnCmBV1PXRC4X1gi2RMnEQgd2YaB3KGfUAyo8hsIjPTXXX8aoAAApmMJOJIcadibCwzEy5XDLHyaRGIs8ER4riZ2s1QzCQ3GtX/0r1A5Iqee+aYjwKZSebnOK6TQNcCGd2dDDFHiKkJ3EMolU/TtUBKPpgjsxauVnkBPGtBtwKpIViWRchnBuL7sgS6FUjJ2cObnFnEk6j3s0uBaMwe4x6s0/Cv34uVamJmkVRyx+RjL1YEZxHDyYniv2+n8zxbasAvs8i8LI7rIdDlDJLkXjlhyJ/6WhKHmHPcxevSpJiWYD2F2jF5uhNI6mAM2cYuaVJcLtysYwZ7Si3dCUSe6YgGFTEziAsWXT4ZqiXQnUBSLOEgnUPziQuWMouElk+6YwkgkADea3FHQNagJATqQZiKJEIgRbA/VsqM88ijpiMEEmCN2MCeGSEAqpEk3QnEdfgca5uYwF5jETK2faTPR6A7gSShjHmGI2F/lX8jSlLbyJSVQHcCSb3LFPI0YOoW9pRZLeuooPAbAbaa3FAE/OJmB+dCDTKg/Z0tH59ML3oIKOR9El/W+284U5pAlwKRxTy3ev2aBN+JxMUk8kqfMbsTxr4fFhb38cucuzsXS3imulmZbUHxFRLoUiBihyq2hLjZI2SPV4XjppsmdSuQGmYRxFG/zroViJim6CxC7FG/OlwLuxbIePeoxEDFtTIhDmlk1wIRAKObc6BIZN8VrpWQt/HTvUDETEeJRMRR1K2zMSaramWX6yBLFhCRyCJg0uO4SwXOz7lZ6perY36a47oJMIPc2UdE8uE0fLo7pfNrwzGH30mgA6q+UhDIzCYSuP/+7hwhjbhEhOHKajXmkJ3LIXvUZohNHSKQFXPJoL4JJUIsEmfILNSyMATZuDHT71y+7lH7uoLS9GlikCfmu7v6f/XuxPz5EHeVOUsx423jJ+VZ/1oYLG7MdCJxonmRmxAtcUAgESP2zvDniGzNJJ1cqre1DrlbHPJHT19duma20OBirVmb8w8ERBzBd/gacrkQyMMw4GCJQJQ4fAGNiASBeIPyuUjgIRhfTLFxsgGREINs2Lfnr1aD8VgoxoN3ZpBYg3eQfgrGf2h1VYJ3q+slCERrFDRSTlK8Edp3gy4XAgk1bgfpsorD8zMmEgTiDdf5565gPJbdNS5Rc+Fiq49JT5AeQ6vBtGrBeCQbiUvcm2Eusi3nbgE2spT8yZlBAhn7bSaByU0k0w7GUzpde/COQAKsKu7HaEh3xWtFKIfEGwFsxyQVxyUIZMOIIgYRh7gDPlntVzzfzq3PqsThG1qpSBCIN9Ds07sf9+K4JanUmLf2bfyiGoxPz7uoPDsjbXZcg/d7bfRR8ysEskAz6ArrjDkOtoX8NZ6S2VCC4kXBpzRYxDE9Qjx+Rjwzk1JdqTwIZEY+5grr78SMgpqVU9Ohnw212jQ+EDZ7vr5VkSCQadQsxRvBA6pilytoNgzsqH9acu22rIhExBNYnIlkrIM4M4k4JPjeZbGrSK6vENpVkF5mbXH8+n56Ovgn8ZzmNzf0enVsSd3PIKruxxSXiOCONeP72mJcxfe5Z2dcfBEijvtcY/oG4pKuBaJ5hfWDQ+KSkreCcwbjvo+hny3EJV0KxMcbWW8pFohLVGdDp4KlYDxUHD6ddZF0JxAfb6jd7vQjYenzQJFozobPgvGlrm6dsxy8dyUQ7Svs1qC4fSciybxFRTPeEHFI/LB2p+rWr8hfpDx5V5iUH5m1aPJuBKJ5hU2xWI64xLuKarNhQjAey8Ja8N6FQDSvsLED4iG9osul7io6cYzxwkOD8xxYikuaFogMItXtFRrjxYlkFOyOsrRdRY1gPLY7VkTSrEC0B5Gm7ywuUWpcoukqagfjKSKpfeW9SYFoDqLR6JNvfnuZdexIWEkfG5douoq5gvGVrq6erj14b04g2oNo7n6ouwYBcYnFYHxVEStf1Bq8NyMQ7UG0dYXNIZK1uMRyML6ihdXTwlXTlV2tKOKLJgTi440jb3eKMWV20TKoj0tG93AyoO9XhD03k85nw83Ehb68nIafhaperNb8bt4c8cY4Qyziejw5LaadVdtwdbmuFbnfH2tMOxIRt/Z3O9JIxOcyLRBxS+TvUcR3ezmHXGFTVpBFUE4ken8AVEkY0ksRx+jfL3eZs08ImBSI+OVOGG9aLpXGIFIXyRPDBX0td9+ceIPSkmiRgLkYJEfQqnWFFZFUs9/owJXxxZHVyElTAtEOWuVtHKHxRoy9S9+ytBCMx/AsmdaMQDTXNwR47kE0Cs8J8EjjiquYGkcd2U5LdVUfg+SIN466oyMice0/737ePWBEacRRAdV0l6TqGeR0GV5kcGkF4+JSifuTcqcqdWT4rRRSd2oZT/NN/XqajgTRBKoWiJowBIsbRDnijVDi2Vyuwv0K7b/VdFULRAtq7ngjtJ3aIqmlX6H9t5iuaYHUGLSKSGRg7xksNfZrT39qzlt9kJ4KTwaR1vpGahvW8k0x0Clli0rN/Vrrr+Xzbc4gRoLWaJfLSL8sC2Le9uYEYs0vDxYJwfh87B5y3IxALPvlIpKtLSrWRH/IyD2okiYE4v3yI9c3cthnvkXFsuhz8ClRpv0gXfxydwUuAS9HnTKbyNZ5WSSt9SZDjn7XWqZtgTTql49xSa0jprN2mRSIuB5H7afqbDzQ3RkBcwLx8casHxxCIAsBW0E66wBZBgGFrhOwI5BG44110/BNDQRMuFiyDmD9Fm4NxqYN8QSqFgjxRrxByaFLoGoXq7aXiOmipzQLBKoWiAWAtLFtAgikbfvSu50EEMhOgGRvmwACadu+9G4nAQSyEyDZ2yaAQNq2L73bSQCB7ARI9rYJIJC27UvvdhJAIDsBkr1tAgikbfvSu50Eqt6LNbg/kuPe6v6ys49kt0TAvW/W/avmp26BOEyq7+etBjsNsUIAF8uKpWhnEQIIpAh2KrVCAIFYsRTtLEIAgRTBTqVWCCAQK5ainUUIIJAi2KnUCgEEYsVStLMIAQRSBDuVWiGAQKxYinYWIYBAimCnUisEDt1qIu+5sgKGdkIAAhCAAAQgAAEIQAACEIAABCAAAQhAAAIQgAAEIAABCEAAAhCAAAQgAAEIQAACEIAABCAAAQhAAAIQgAAEIAABCEAAAhCAAAQgAAEIQAACEIAABCAAAQhAAAIQgAAEIAABCEAAAhCAAAQgAAEIQAACEIAABCAAAQhAAAIQgAAEIAABCEBAgcD/KsoPlt9s9w8AAAAASUVORK5CYII=;" parent="1" vertex="1">
          <mxGeometry x="1057.0015384615383" y="91.67769230769238" width="40" height="40" as="geometry" />
        </mxCell>
        <mxCell id="BFcZCi9EVdHsKfas7D4n-31" style="edgeStyle=orthogonalEdgeStyle;rounded=0;orthogonalLoop=1;jettySize=auto;html=1;exitX=0.5;exitY=1;exitDx=0;exitDy=0;entryX=0.5;entryY=0;entryDx=0;entryDy=0;strokeWidth=2;" parent="1" source="BFcZCi9EVdHsKfas7D4n-1" target="BFcZCi9EVdHsKfas7D4n-4" edge="1">
          <mxGeometry relative="1" as="geometry" />
        </mxCell>
        <mxCell id="BFcZCi9EVdHsKfas7D4n-1" value="" style="rounded=1;whiteSpace=wrap;html=1;fillColor=#e1d5e7;strokeColor=#9673a6;strokeWidth=2;" parent="1" vertex="1">
          <mxGeometry x="31" y="144" width="120" height="60" as="geometry" />
        </mxCell>
        <mxCell id="BFcZCi9EVdHsKfas7D4n-2" value="&lt;font style=&quot;font-size: 16px;&quot;&gt;源文档&lt;/font&gt;" style="text;html=1;align=center;verticalAlign=middle;whiteSpace=wrap;rounded=0;" parent="1" vertex="1">
          <mxGeometry x="61" y="159" width="60" height="30" as="geometry" />
        </mxCell>
        <mxCell id="BFcZCi9EVdHsKfas7D4n-33" style="edgeStyle=orthogonalEdgeStyle;rounded=0;orthogonalLoop=1;jettySize=auto;html=1;exitX=0.5;exitY=1;exitDx=0;exitDy=0;entryX=0.5;entryY=0;entryDx=0;entryDy=0;strokeWidth=2;" parent="1" source="BFcZCi9EVdHsKfas7D4n-4" target="BFcZCi9EVdHsKfas7D4n-6" edge="1">
          <mxGeometry relative="1" as="geometry" />
        </mxCell>
        <mxCell id="BFcZCi9EVdHsKfas7D4n-4" value="" style="rounded=1;whiteSpace=wrap;html=1;fillColor=#e1d5e7;strokeColor=#9673a6;strokeWidth=2;" parent="1" vertex="1">
          <mxGeometry x="31" y="240" width="120" height="60" as="geometry" />
        </mxCell>
        <mxCell id="BFcZCi9EVdHsKfas7D4n-5" value="&lt;span style=&quot;font-size: 16px;&quot;&gt;文本块&lt;/span&gt;" style="text;html=1;align=center;verticalAlign=middle;whiteSpace=wrap;rounded=0;" parent="1" vertex="1">
          <mxGeometry x="61" y="255" width="60" height="30" as="geometry" />
        </mxCell>
        <mxCell id="BFcZCi9EVdHsKfas7D4n-34" style="edgeStyle=orthogonalEdgeStyle;rounded=0;orthogonalLoop=1;jettySize=auto;html=1;exitX=0.5;exitY=1;exitDx=0;exitDy=0;entryX=0.5;entryY=0;entryDx=0;entryDy=0;strokeWidth=2;" parent="1" source="BFcZCi9EVdHsKfas7D4n-6" target="BFcZCi9EVdHsKfas7D4n-9" edge="1">
          <mxGeometry relative="1" as="geometry" />
        </mxCell>
        <mxCell id="BFcZCi9EVdHsKfas7D4n-6" value="" style="rounded=1;whiteSpace=wrap;html=1;fillColor=#e1d5e7;strokeColor=#9673a6;strokeWidth=2;" parent="1" vertex="1">
          <mxGeometry x="31" y="338" width="120" height="60" as="geometry" />
        </mxCell>
        <mxCell id="BFcZCi9EVdHsKfas7D4n-7" value="&lt;span style=&quot;font-size: 16px;&quot;&gt;实体 &amp;amp; 关系&lt;/span&gt;" style="text;html=1;align=center;verticalAlign=middle;whiteSpace=wrap;rounded=0;" parent="1" vertex="1">
          <mxGeometry x="48" y="353" width="90" height="30" as="geometry" />
        </mxCell>
        <mxCell id="BFcZCi9EVdHsKfas7D4n-37" style="edgeStyle=orthogonalEdgeStyle;rounded=0;orthogonalLoop=1;jettySize=auto;html=1;exitX=1;exitY=0.5;exitDx=0;exitDy=0;entryX=0;entryY=0.5;entryDx=0;entryDy=0;strokeWidth=2;" parent="1" source="BFcZCi9EVdHsKfas7D4n-9" target="BFcZCi9EVdHsKfas7D4n-11" edge="1">
          <mxGeometry relative="1" as="geometry" />
        </mxCell>
        <mxCell id="BFcZCi9EVdHsKfas7D4n-9" value="" style="rounded=1;whiteSpace=wrap;html=1;fillColor=#e1d5e7;strokeColor=#9673a6;strokeWidth=2;" parent="1" vertex="1">
          <mxGeometry x="31" y="436" width="120" height="60" as="geometry" />
        </mxCell>
        <mxCell id="BFcZCi9EVdHsKfas7D4n-10" value="&lt;span style=&quot;font-size: 16px;&quot;&gt;知识图谱&lt;/span&gt;" style="text;html=1;align=center;verticalAlign=middle;whiteSpace=wrap;rounded=0;" parent="1" vertex="1">
          <mxGeometry x="48" y="451" width="90" height="30" as="geometry" />
        </mxCell>
        <mxCell id="BFcZCi9EVdHsKfas7D4n-40" style="edgeStyle=orthogonalEdgeStyle;rounded=0;orthogonalLoop=1;jettySize=auto;html=1;exitX=0.5;exitY=0;exitDx=0;exitDy=0;entryX=0.5;entryY=1;entryDx=0;entryDy=0;strokeWidth=2;" parent="1" source="BFcZCi9EVdHsKfas7D4n-11" target="BFcZCi9EVdHsKfas7D4n-13" edge="1">
          <mxGeometry relative="1" as="geometry" />
        </mxCell>
        <mxCell id="BFcZCi9EVdHsKfas7D4n-11" value="" style="rounded=1;whiteSpace=wrap;html=1;fillColor=#e1d5e7;strokeColor=#9673a6;strokeWidth=2;" parent="1" vertex="1">
          <mxGeometry x="321" y="436" width="120" height="60" as="geometry" />
        </mxCell>
        <mxCell id="BFcZCi9EVdHsKfas7D4n-12" value="&lt;span style=&quot;font-size: 16px;&quot;&gt;图社区&lt;/span&gt;" style="text;html=1;align=center;verticalAlign=middle;whiteSpace=wrap;rounded=0;" parent="1" vertex="1">
          <mxGeometry x="338" y="451" width="90" height="30" as="geometry" />
        </mxCell>
        <mxCell id="BFcZCi9EVdHsKfas7D4n-41" style="edgeStyle=orthogonalEdgeStyle;rounded=0;orthogonalLoop=1;jettySize=auto;html=1;exitX=0.5;exitY=0;exitDx=0;exitDy=0;entryX=0.5;entryY=1;entryDx=0;entryDy=0;strokeWidth=2;" parent="1" source="BFcZCi9EVdHsKfas7D4n-13" target="BFcZCi9EVdHsKfas7D4n-15" edge="1">
          <mxGeometry relative="1" as="geometry" />
        </mxCell>
        <mxCell id="BFcZCi9EVdHsKfas7D4n-13" value="" style="rounded=1;whiteSpace=wrap;html=1;fillColor=#e1d5e7;strokeColor=#9673a6;strokeWidth=2;" parent="1" vertex="1">
          <mxGeometry x="321" y="340" width="120" height="60" as="geometry" />
        </mxCell>
        <mxCell id="BFcZCi9EVdHsKfas7D4n-14" value="&lt;span style=&quot;font-size: 16px;&quot;&gt;社区摘要&lt;/span&gt;" style="text;html=1;align=center;verticalAlign=middle;whiteSpace=wrap;rounded=0;" parent="1" vertex="1">
          <mxGeometry x="338" y="355" width="90" height="30" as="geometry" />
        </mxCell>
        <mxCell id="BFcZCi9EVdHsKfas7D4n-45" style="edgeStyle=orthogonalEdgeStyle;rounded=0;orthogonalLoop=1;jettySize=auto;html=1;exitX=0.5;exitY=0;exitDx=0;exitDy=0;entryX=0.5;entryY=1;entryDx=0;entryDy=0;strokeWidth=2;" parent="1" source="BFcZCi9EVdHsKfas7D4n-15" target="BFcZCi9EVdHsKfas7D4n-17" edge="1">
          <mxGeometry relative="1" as="geometry" />
        </mxCell>
        <mxCell id="BFcZCi9EVdHsKfas7D4n-15" value="" style="rounded=1;whiteSpace=wrap;html=1;fillColor=#d5e8d4;strokeColor=#82b366;strokeWidth=2;" parent="1" vertex="1">
          <mxGeometry x="321" y="237" width="120" height="60" as="geometry" />
        </mxCell>
        <mxCell id="BFcZCi9EVdHsKfas7D4n-16" value="&lt;span style=&quot;font-size: 16px;&quot;&gt;社区答案&lt;/span&gt;" style="text;html=1;align=center;verticalAlign=middle;whiteSpace=wrap;rounded=0;" parent="1" vertex="1">
          <mxGeometry x="338" y="252" width="90" height="30" as="geometry" />
        </mxCell>
        <mxCell id="BFcZCi9EVdHsKfas7D4n-17" value="" style="rounded=1;whiteSpace=wrap;html=1;fillColor=#d5e8d4;strokeColor=#82b366;strokeWidth=2;" parent="1" vertex="1">
          <mxGeometry x="321" y="147" width="120" height="60" as="geometry" />
        </mxCell>
        <mxCell id="BFcZCi9EVdHsKfas7D4n-18" value="&lt;span style=&quot;font-size: 16px;&quot;&gt;全局答案&lt;/span&gt;" style="text;html=1;align=center;verticalAlign=middle;whiteSpace=wrap;rounded=0;" parent="1" vertex="1">
          <mxGeometry x="338" y="162" width="90" height="30" as="geometry" />
        </mxCell>
        <mxCell id="BFcZCi9EVdHsKfas7D4n-20" value="&lt;font style=&quot;font-size: 16px;&quot;&gt;文本提取与分块&lt;/font&gt;" style="text;html=1;align=center;verticalAlign=middle;whiteSpace=wrap;rounded=0;" parent="1" vertex="1">
          <mxGeometry x="93" y="207" width="127" height="30" as="geometry" />
        </mxCell>
        <mxCell id="BFcZCi9EVdHsKfas7D4n-21" value="&lt;span style=&quot;font-size: 16px;&quot;&gt;特定领域摘要&lt;/span&gt;" style="text;html=1;align=center;verticalAlign=middle;whiteSpace=wrap;rounded=0;" parent="1" vertex="1">
          <mxGeometry x="90" y="304" width="127" height="30" as="geometry" />
        </mxCell>
        <mxCell id="BFcZCi9EVdHsKfas7D4n-22" value="&lt;span style=&quot;font-size: 16px;&quot;&gt;特定领域摘要&lt;/span&gt;" style="text;html=1;align=center;verticalAlign=middle;whiteSpace=wrap;rounded=0;" parent="1" vertex="1">
          <mxGeometry x="90" y="398" width="127" height="30" as="geometry" />
        </mxCell>
        <mxCell id="BFcZCi9EVdHsKfas7D4n-23" value="&lt;span style=&quot;font-size: 16px;&quot;&gt;特定领域摘要&lt;/span&gt;" style="text;html=1;align=center;verticalAlign=middle;whiteSpace=wrap;rounded=0;" parent="1" vertex="1">
          <mxGeometry x="381" y="404" width="127" height="30" as="geometry" />
        </mxCell>
        <mxCell id="BFcZCi9EVdHsKfas7D4n-24" value="&lt;span style=&quot;font-size: 16px;&quot;&gt;以查询为导向的摘要&lt;/span&gt;" style="text;html=1;align=center;verticalAlign=middle;whiteSpace=wrap;rounded=0;" parent="1" vertex="1">
          <mxGeometry x="381" y="304" width="157" height="30" as="geometry" />
        </mxCell>
        <mxCell id="BFcZCi9EVdHsKfas7D4n-25" value="&lt;span style=&quot;font-size: 16px;&quot;&gt;以查询为导向的摘要&lt;/span&gt;" style="text;html=1;align=center;verticalAlign=middle;whiteSpace=wrap;rounded=0;" parent="1" vertex="1">
          <mxGeometry x="383" y="207" width="157" height="30" as="geometry" />
        </mxCell>
        <mxCell id="BFcZCi9EVdHsKfas7D4n-26" value="" style="rounded=1;whiteSpace=wrap;html=1;fillColor=#e1d5e7;strokeColor=#9673a6;strokeWidth=2;" parent="1" vertex="1">
          <mxGeometry x="31" y="555" width="120" height="60" as="geometry" />
        </mxCell>
        <mxCell id="BFcZCi9EVdHsKfas7D4n-27" value="&lt;span style=&quot;font-size: 16px;&quot;&gt;索引时间&lt;/span&gt;" style="text;html=1;align=center;verticalAlign=middle;whiteSpace=wrap;rounded=0;" parent="1" vertex="1">
          <mxGeometry x="48" y="570" width="90" height="30" as="geometry" />
        </mxCell>
        <mxCell id="BFcZCi9EVdHsKfas7D4n-28" value="" style="rounded=1;whiteSpace=wrap;html=1;fillColor=#d5e8d4;strokeColor=#82b366;strokeWidth=2;" parent="1" vertex="1">
          <mxGeometry x="317" y="555" width="120" height="60" as="geometry" />
        </mxCell>
        <mxCell id="BFcZCi9EVdHsKfas7D4n-29" value="&lt;span style=&quot;font-size: 16px;&quot;&gt;查询时间&lt;/span&gt;" style="text;html=1;align=center;verticalAlign=middle;whiteSpace=wrap;rounded=0;" parent="1" vertex="1">
          <mxGeometry x="334" y="570" width="90" height="30" as="geometry" />
        </mxCell>
        <mxCell id="BFcZCi9EVdHsKfas7D4n-30" value="&lt;font style=&quot;font-size: 24px;&quot;&gt;&lt;b&gt;流水线阶段&lt;/b&gt;&lt;/font&gt;" style="text;html=1;align=center;verticalAlign=middle;whiteSpace=wrap;rounded=0;" parent="1" vertex="1">
          <mxGeometry x="160" y="570" width="152" height="30" as="geometry" />
        </mxCell>
        <mxCell id="BFcZCi9EVdHsKfas7D4n-38" value="&lt;span style=&quot;font-size: 16px;&quot;&gt;社区检测&lt;/span&gt;" style="text;html=1;align=center;verticalAlign=middle;whiteSpace=wrap;rounded=0;" parent="1" vertex="1">
          <mxGeometry x="169.5" y="434" width="127" height="30" as="geometry" />
        </mxCell>
        <mxCell id="BFcZCi9EVdHsKfas7D4n-47" value="&lt;font style=&quot;font-size: 30px;&quot;&gt;&lt;b&gt;图RAG&lt;/b&gt;&lt;/font&gt;" style="text;html=1;align=center;verticalAlign=middle;whiteSpace=wrap;rounded=0;" parent="1" vertex="1">
          <mxGeometry x="156" y="652" width="154" height="30" as="geometry" />
        </mxCell>
        <mxCell id="BFcZCi9EVdHsKfas7D4n-75" style="edgeStyle=orthogonalEdgeStyle;rounded=0;orthogonalLoop=1;jettySize=auto;html=1;exitX=1;exitY=0.5;exitDx=0;exitDy=0;entryX=0;entryY=0.5;entryDx=0;entryDy=0;strokeWidth=2;" parent="1" source="BFcZCi9EVdHsKfas7D4n-49" target="xa00FXEDvekAq0uYWlAG-4" edge="1">
          <mxGeometry relative="1" as="geometry" />
        </mxCell>
        <mxCell id="BFcZCi9EVdHsKfas7D4n-49" value="" style="shape=image;verticalLabelPosition=bottom;labelBackgroundColor=default;verticalAlign=top;aspect=fixed;imageAspect=0;image=data:image/png,iVBORw0KGgoAAAANSUhEUgAAAMgAAADICAYAAACtWK6eAAAAAXNSR0IArs4c6QAAAERlWElmTU0AKgAAAAgAAYdpAAQAAAABAAAAGgAAAAAAA6ABAAMAAAABAAEAAKACAAQAAAABAAAAyKADAAQAAAABAAAAyAAAAACbWz2VAAAHuklEQVR4Ae3agXHbNhQG4KTNIN0k7CbdxMhkUiZzgdY6Q8hJEUFQIvk+3jEGLAIEvsffsmN/+eIgQIAAAQIECBAgQIAAAQIECBAgQIAAAQIECBAgQIAAAQIECBAgQIAAAQIECBAgQIAAAQIECBAgQIAAAQIEji/wdeUtTivPb3oCtwTOt1549eenvIBTPt+dDF78DJTnMOVzM4dg+MKwxS+MqTchI7/FKuGYehdiHIGVBc55/r/n3uPPuQNuXJ/y5/+58ZpPE9iCwF95EeUN4ZzPh49R7yDlbdVBYA8C5V3k/OhC/3j0wjvXpTuveYnArgVGBGTXABYfTuBtzo5HBOT7nBu6lsCeBEYEZE/7tVYCswQEZBaXi6MJCEi0itvvLAEBmcXl4mgCAhKt4vY7S0BAZnG5OJqAgESruP3OEvg26+p1Lp79B2TrLMOsOxIofxj7lGMLATk/ZaduQqBDwLdYHWiGxBEQkDi1ttMOAQHpQDMkjoCAxKm1nXYICEgHmiFxBAQkTq3ttENAQDrQDIkjICBxam2nHQIC0oFmSBwBAYlTazvtEBCQDjRD4ggISJxa22mHgIB0oBkSR0BA4tTaTjsEBKQDzZA4AgISp9Z22iEgIB1ohsQREJA4tbbTDgEB6UAzJI6AgMSptZ12CAhIB5ohcQQEJE6t7bRDQEA60AyJIyAgcWptpx0CAtKBZkgcAQGJU2s77RAQkA40Q+IICEicWttph4CAdKAZEkdAQOLU2k47BASkA82QOAICEqfWdtohICAdaIbEERCQOLW20w4BAelAMySOgIDEqbWddggISAeaIXEEBCROre20Q0BAOtAMiSMgIHFqbacdAgLSgWZIHIFvcbZ6tdPpo3f5ePWizsMC53xlOR13BE75tfcF552ph780LVjnkj0efWwaXqn7Ey7xPN2f+vrVSO8gBWa63r7eIIG3j3nSoPk2M02Un0FK4abNqB9zISUks74674EhQkBSLsTlK9wearLnNU558WnPG1hj7eWrxvuCc4011XMuWZuxfbWt/ddoL6nLac6Cjv4OMs3BcO0wgcO4C8iwZ8JERxQ4ekCOWLM97GnawyIfWePRA3J+BME1BG4JHD0gt/bt8+sKnNed/nmzHz0gpVDldDxP4JxvVc5DHEcPSCnSj0NUaj+b+Lmfpf5+pRECcs4MQvL7Z2HEFcU5jZjoSHOUX7ws+cXNsyzSwnUu2WOEscX3WccSz9OzFnm5T7nhkgVf5nnWx7RwvUv2erSxpfblnPL5zGOJY1nvw0ekv+a9oKTcKGc5pv/+9U+PwLln0N7GRAxIXaMQRa43rD1PIMIP6fNEXE2gEhCQCkOTQCsgIK2IPoFKQEAqDE0CrYCAtCL6BCoBAakwNAm0AgLSiugTqAQEpMLQJNAKCEgrok+gEhCQCkOTQCsgIK2IPoFKQEAqDE0CrYCAtCL6BCoBAakwNAm0AgLSiugTqAQEpMLQJNAKCEgrok+gEhCQCkOTQCsgIK2IPoFKQEAqDE0CrYCAtCL6BCoBAakwNAm0AgLSiugTqAQEpMLQJNAKCEgrok+gEhCQCkOTQCsgIK2IPoFKQEAqDE0CrYCAtCL6BCoBAakwNAm0AgLSiugTqAQEpMLQJNAKCEgrok+gEhCQCkOTQCsgIK2IPoFKQEAqDE0CrYCAtCL6BCoBAakwNAm0AgLSiugTqAQEpMLQJNAKCEgrok+gEvhWtV/VPD3xxj8/7nXOH8u5hWP6WMTbFhZjDeMFygP+vtMzjed4eMZy77267Xnd5Xl9+NjCO8jDi13hwrePOdMKc9+astzrct9b1/j8RgSiB6SU4fKwppVrUua/3GvlW5l+lIAf0v+XLA/uNAq1mSfl/ns+haOB2UNXQD6rNPoBTnlqwfj03WXLt1ifZZs+m4taKY8eHbZFCzK4X0BA+u3akSl/QjBalZ33fYt1XcDpuvtQL+WrfCv1ENX+LhoRkMsv3/a3+2UrTnm4YCwzfMXoWc/riICcX7HLF94z5XsLxgsLsMdbnz4emvLg7Pmc7uCnne9tz3UZufY7Jf71pRHvIGXWH79OfZjPpLyTUqC3w+wo7kZe+pym7D4y6a+Ya6qenSPs5xWGW71nqefLj5RXsFWgR9Y15fXvfQ+P7DPaNaWmXcfXrlG/H5TyJd/zOeXTQeAVAud80/I/Vimfjg+BlD/u+atjWb9jQwJ+k76NYpQfHtM2lmIVtYCA1BrPbwvG881n3VFAZnENu1gwhlGuO5GArOvbzi4YrcjG+wLynAIJxnOch99FQIaTXk0oGFcc++sIyDo1E4x1XJ8+q4CMJReMsZ4vn01AxpRAMMY4bm4WAVlWEsFY5rf50QLSVyLB6HMz6sUCU77/mn+LlV68P7cnsEhgyqPXCEhatCqDCWxI4JTXMiokaUP7shQCQwRSnmVpQMocDgKHFeh9F0mHFbExAo3AnJCkZqwugRACKe/y3rdb5XUHgZsCX2++cqwXUrOdc+6X00GAAAECBAgQIECAAAECBAgQIECAAAECBAgQIECAAAECBAgQIECAAAECBAgQIECAAAECBAgQIECAAAECBAgQIECAAAECBAgQIECAAAECBAgQIECAAAECBAgQIECAAAECBAgQIFAJ/AvngIeR90UKRAAAAABJRU5ErkJggg==;" parent="1" vertex="1">
          <mxGeometry x="844.0000000000001" y="611.75" width="44" height="44" as="geometry" />
        </mxCell>
        <mxCell id="BFcZCi9EVdHsKfas7D4n-51" value="&lt;font style=&quot;font-size: 16px;&quot;&gt;提示词模版&lt;/font&gt;" style="text;html=1;align=center;verticalAlign=middle;whiteSpace=wrap;rounded=0;" parent="1" vertex="1">
          <mxGeometry x="818.0000000000001" y="656.75" width="102" height="30" as="geometry" />
        </mxCell>
        <mxCell id="BFcZCi9EVdHsKfas7D4n-76" style="edgeStyle=orthogonalEdgeStyle;rounded=0;orthogonalLoop=1;jettySize=auto;html=1;exitX=0.5;exitY=1;exitDx=0;exitDy=0;entryX=0.75;entryY=0;entryDx=0;entryDy=0;strokeWidth=2;" parent="1" source="BFcZCi9EVdHsKfas7D4n-52" target="BFcZCi9EVdHsKfas7D4n-55" edge="1">
          <mxGeometry relative="1" as="geometry" />
        </mxCell>
        <mxCell id="BFcZCi9EVdHsKfas7D4n-52" value="&lt;font style=&quot;font-size: 16px;&quot;&gt;多模态数据&lt;/font&gt;" style="text;html=1;align=center;verticalAlign=middle;whiteSpace=wrap;rounded=0;" parent="1" vertex="1">
          <mxGeometry x="1000" y="132.68" width="107" height="30" as="geometry" />
        </mxCell>
        <mxCell id="BFcZCi9EVdHsKfas7D4n-53" value="" style="shape=image;verticalLabelPosition=bottom;labelBackgroundColor=default;verticalAlign=top;aspect=fixed;imageAspect=0;image=data:image/png,iVBORw0KGgoAAAANSUhEUgAAAMgAAADICAYAAACtWK6eAAAAAXNSR0IArs4c6QAAAERlWElmTU0AKgAAAAgAAYdpAAQAAAABAAAAGgAAAAAAA6ABAAMAAAABAAEAAKACAAQAAAABAAAAyKADAAQAAAABAAAAyAAAAACbWz2VAAAUK0lEQVR4Ae1dO6wkRxWdfusEQm9k2ZZAWhwSrLBsR34O1+uE1AgBkiWvCEkR8lqIlBCtJUtA4pTEn9DjiLVkOSC0SZCMiJaUbIc5U+++qenX1dPVfW/9+pT0tv+3qk7dc09VdW1Ptyk0vfrgs0tXtKeH7W538fppUXdX10/P8qhUBLqtlKzrnn4h+257sX386N719dNreY+6vNlvNj4RjiSg8+dul3z5d1sh0ONH9x/mK4fLOQtBQIrdbvOeKwLJkNsJys5fCJNHZZIR5EgKEqJshyy7dF23ex8lTKUu5gQhMcp2uJpLB7JYE8WMIK8++OThbtdddaNqbgaWvXQELImiThASo3R3ard8FkRRIwi7Uu06Xm010yTKLY3KO9XY/Hlv6wca9miDCCxDoLt88eW3u++++mi7zM5ms0hBqBpL4efz1gh0XffGkpeQswniyLH73LqCtE8EliKwpMt1MSdz16UiOeZgx2fSI4DZVPjsnJyjxyCcpZoDM5/Jj8C8cUkUQUiO/M3MEixBIJ4kk8cgJMeShuGzJSEQM3CfRBAOyEtqXpZFA4GpJJk0SN/tOCDXaBTaKAeB42ry8TKdJcjc0f94trxKBHIjsLuc4tujXSyOO3I3IvO3RuBcV2tUQbga17p5aD83Aue6WkGCTJGf3JVj/kRgOQLjXa0gQagey6GnhToQGPP1QYJQPepoWJZSD4GQzw8SZIxRekWiJSJQDgIhn79BkBCTyqkKS0IEbBDAC/G+5RsECTGp/yCPiUBrCAzNaJ0QhOrRWpOzPnEIYEbrVEVOCBJnjHcTgfYQ6KvICUHYvWqvwVmjWAROP2x4TZC+tMSa5f1EoBUEfC5cE2SzcV9Rb6WSrAcRmIuA3816Roy4L6vv5JDbhAjcfenZzd2Xbu//nj3k+vU3/918+PG3CUvArEIIXK/mfeXdT8mOEEqG5//0m1euidHP5sOP/0mi9EFJdCyrfA9dLE7vJkLdy+adt360/0L5vSA5cOs7b9053IN7mfIgcN3FypP9+nJFNwoOL92pKQiAKEjsdk1BS+uew5h8e1CQ4y87aRmnnSEEQIyxLtXQM3KOaiJIpNkKJ64U5HTuN00R1pPLHNUIoQOiwB7UBIN5JlsEvGle24zWan2JaoQwA0GgRBybhBDSOO9Eo8NLEX61RAPQUxuaqnFq+fRIpoSpJqe4aBxhJmuvIHxBqAGmb8NCNXz7/j7VxEdDf//WCz/52eX+VxD2f0xLEYCz/u4XP97cf+35paainxfFwi9aUE2i4Rt8YP9V+H9xmncQmviTUA2Zjo1/Wu8JKQOnhHUwpYIsxDGnaoSKTjUJIRN7/mLzDNdgxYJ2vH/uO42jBds9qslyfDnNOwNDROhzy0RmmDV5BCRBWTklPA9ejkEicStdNULVoZqEkBk/33EV7zhAcrWUQbiUZ8mWq4Sno0cFOYOVDHixbSVRTaa3JBVkBKuWVCNUTapJCBl3HtO8D8dvWd9VqIXVCz+8xPvk7/+OWu6OFoAjIz13+3uHrdY/qCv+N+N/nvzv8KdltxU7JEivJaEaIIe2IyIbOPnv//qPQ473X3uhl/P4IV78OZJ00eQat+xI58rDt/B9rDgGuULEcqyhuaDQEeXbw7StjCX6jTr3GPaAA5fSHxEkQfZYWI41rPr4spREmyQgCKayrcp9dL069lb9olCcQdvJ0PRQjV//8ctDNLZyBZBk/98VrrpeurkAE75g3GxWqyCWqgFipFxRa6UmoJwED8lDl4blW1udglirBiJ6SnKIi1FNBAnd7aoUxHKZSGrVCLmBRHqJ/KH75pwXm5LHHBu1PbMKBYFqWC0uhFrkUo2Qs1FNQsjEn29eQaxUA8SAI+boTk1tZon0EvmnPjflPrEpeUx5psZ7mlUQDMKtVANToKV0qc45HdXkHELj15tTEHSnQA5stVMNqhGqs0R6ifyh++acF5uSxxwbpT7TlIKAGFZdqppUI+RsVJMQMuHzTSgIVSPcwENXQJSvv3liorRQE7SHy6P+Lz9WryBUjSEKnD+H7qJ70+9WCZ9/YvodIAiUHG1Te6pWQagaOq6HSI8/OLOMJXQsu7fwtatJlQSxaExxirUu0gNJkLRJImpSK65VdbEEbO1GhGMcuxzr/ekzkISLH+ENx1SNglA1jo1mvWelJii3BDfJw7ouS+0XryDWquEi5npVI+RAVBOHTNEKYvVOA1Wv5U14yIFTnZdIL5FfM1+xKXlo2tayVaSCQDWslolgrFHa4kKtxrSys2Y1KU5BrFSj5mUiVo4fa1civUT+2OfH7hebksfYvSmvFaMgGIRbqUYLy0RSOsVYXmtTkyIUxGqGiqox5urLrkmkl8i/zNrp02JT8ji9mvYou4JYkYOqYe9I1moC38idsn84DmMOzQTVwMfZ8PXCEhMmINDwsR+mK/nDbsAcf8/d/n50vcbaCFgh0OVMWQkCRwEIWglgghz4jGaJCfVd8tVGh1WZXz8E5i4o6X75EcTL2Z7ZCRIbSYccvwbV0PrWL0hS8rd00RYu6usQBaqUszdQxCB9yOmnnkOD4KVfqQmqIYNOrTKCJOiawhFLGMgO1Qv/32SzuTN0qapz1RMEzoLp4dKcBeXS7kL2PUuIVxpJLIJCv+6pjqsniABVkrNIhJeyWW5Rb/yVEiCsXvRaYjhmuxmCoJIlOEsuB8kdIFIGhTGH1r6W/T2IdoVgzxEl7Ry6OAi2uRLqje4mujgpE/LTnq5PWf6xvJpSEL+ioiYpVu2W1udOpSYIBqh7zqDgt7nFfrMEEbAsZ3tKdhCQBOXDAB4zfdqptKCgXT+x1zxBUFFxFs3p4BocBATRDhAlBwVxas3tKggCwNCwGtPBVg7iXrC5aK890NfqctUQFDTJAVtZ36RjfZHGm/QYUODgm8285Rp4Fs6rXWZM0fpLZCyWbAix59Yd9b7/2vMxUKvce1zComIu2shqFMRHBhEVfzHvDrSjOsrjq4ZfPuy7scMT9dmhWDWRoNAv31qOm5zmndp4jijjU6LiINhqJpDz3AwbCGTxGR7Ue8p0MLpUCAxrTlUpCBwGfxIFNRrOkeTOoLNa9bnPEaNfL1lKollv5CH2xL7kK90x7aCAtkPStivltthWpyBoTERf7YRICUIgoQHd8R3VbEQRxFFijKPeVmridx9FNbSdGEFBcxYxBrsl91alIFJRRxL978mKmkg+mtuY8c5YvhLtJfqP3Tv1mgQEEFebGLCJMs8JClPLb3lflQQRQCycRWxrbS0cRAKEH/k1yqtNDq2goFG3uTaqJggq7aKTzW9dzAVVnrN2EHRZrMZJUoc5W4ugMKccGs9UTxCAgAYpyVlSOogECKhJCck6KKSuYxMEEdBK6HLlcBAQEgP4nGqSMihIe6fYNkUQACb98xzOAhWDo+RKuQIE6lzjDNWUdmqOIFLplM5SkoOkDhC5g4K0t9W2uvcgMUDAWSzeHfhlQJeqxOjpiKL/vkjqLkEhp2JKWSy3TRMEwGHqUnv60rJBarENYrRODrRFs10sVA7EsJ7dkRd20qVDviUk7Xck/TrJS9UckxL9slgeN0sQawfxG6UkZ0kRFPp1x3FpAcIv45L95rpY4iA5ulWOKOOrg5c01rlnZR3Vufu0r6PeU1YHa+ebwl5TCpJjarffSKImKWd3EAxQ9xxBwa8/6o7Ukpo0QZBSHMR3FnTxUvTPSwgKfr1BErQHSNLCIL56gpTmIEPOYjENXGJQkLqjbKkChORpta2WIFYOgqgH21oJtjQ+FuGXp+SgcFrO+rtcVRJEIpTfGBr70iWyIJ9W/9xidg5BQbpE2uSTMZlgq9FOKW1U9VUTfOECX0JBI2omOIj/q1THL2no/MaFlFWIN+fLInj2b3+4NP+iCrDAn/tFKyn58i3Kj3rjizAxX4U5tsXyMsyxUJWCOJDnVDP8zFhkk9kYif5hK3FXxJ7YP/e0dlRHfr5q9PPHNYvVwVLvfn4lHzf3HiQGbAyezzkprlus54KzYGwyRnpcQ5dK27FAgCnT0Kg7AsiaU1VdLK2GgoP89LfbqN++wzPoIow59JzyhX6cE6qx5PcMQ2VxQWG606PejiT6dQ+V0T+fu4u1OgVBY8+ddrVUEygFUm7V8J3T31+rmlQ1BvEbLHbfRUKdl1dwFiTNrg+IgS6XRRobZ8Xk50jy7aHbp62kMeVIee8qCKLlIH7DwFnwQ5XoCpXqLJpBwa87FNhi4sDPo5T9pgli5SDSeLBfqrNYBAWpN7YSIKRr6F9rab9Zglg7iO8EFl0u337MvnVQ8MuCvCymg/08cu83SRBEdTReyiT985xdD1G0lPVGXiUFCO26N0WQXA7iN0ouZ8kRFPr1Rt1zBgi/PFr7zUzzoksFJykhwVEsXi4O1U2CQmrFHCoLzqHuaItWUhMKkjt6hpzBWk1SjrNCdRw670jSxnRwEwS5+9Lt5GOOIccYOgdn0Z4Ohlo4u2nHWUP1GzqHaW+t6e/cyph1qYmszh0COeacNMicVbIx+cy997hcYvlyDaiG/3uGc8tk9RyIoblEBgTJSZImFEQaG2+2QZZSoyvKhTTnDfyaVEPaE1vBzD+Xcj+7gmgvAMT/NQgtAEwJbCgviYix/98CqpEzkobqg/PaqiF5QS1z1zn7LBYihMWsB6J0q5+iEQfKvYVaWyzHR71KmYAoooslMjqn63HOScSm5HHufl6fhoDl+45SyAEksiuINAcc2OrdAdVEUF6+tVQNdKcwZV9SMCtCQfxmE3Ak8vvXlu6LTcljqb21PW+pGqW+yypGQXxno5r4aOTfh2q48dwd9cJANdBzyD0YD1WsOAXxCyqRXiK/f23pvtiUPJbaa/V5DMJBEO0EQgD7Uokh9S1SQaRw2FJNfDTS7YtqWJADg/BSu1R9hItWEL+wEukl8vvXlu6LTcljqb2anwchMNawIEYtquG3X/EK4heWauKjob8PYlh1qWpSDR/ZahTELzSIor0AUOyvUU2oGtL6N7dVKYhffMi1mzPX/78HIMla3sJTNXyvurlfpYL41RA1wZJ3if7+9SX7sIfo6vIoc2n53PpRNaYhVz1BUE2oiUwXapMEjoR+eUnLH6Y1bfguyxd+LeEEBKvtYg01PwfxQ6gczwnZtYMIcjh2ed2S/mOude81oSD9JgBRkCwcQWxKHv28Sz2masxrmaYUxIeAauLQoGr4XhG/36SC+DBIpJfI719bui82JY+l9rSft3qngXLW8iZ8KabNKogPzNrUBKqBaWpstRPGGiUvLtSub/MK4gMmkV4iv39t6b7YlDyW2pv7vJVqgBiom8wWzi1fbc+tQkH8RmlVTSxVo9ZlIn67z91flYL4IEmkl8jvX1u6LzYlj6X2xp4HMTBDZdWdWqNq+HivTkH8yteuJlwm4remzf5qFcSH00VJmx/DsVATqobferb7q1YQH9rjm+CyFz9SNfxWs9+ngvQwFjWxXPw4ZybIlYdjjV5zmR92r7z76c48l0ozsFyeUQokrS0u1MaVBJmAaItEWet7jQnNfXILu1gncAwfoNuFJAPu4bvqOUvVmN5WewX57PPNZnc5/ZF131mzmlA1Yn2321JBIjGrVU3WsrgwsjnP3s5p3rMQ3bwBJLH6jvDN3JadgWqsaXHhMrRuPk0FuYnJ5DMlqwm7U5ObMXhj1z394taLL7/9w/2P2FwG7+KFUQScI+Ll4vKfVxvNKOIiBuEl/0xbRFWy3tp1my+oIEpNUIKaUDWUGtMzs/8Jtp/j8JfeOe7ORCCnmlA1ZjbayGNUkBFwllyCmlh9+bFfLqpGHxHN44ttB3NcbqIJ6qkty/cmfOF3irX20ZcfvNldjUG6LV8WasPr7ImaaC5+pGrYtNWQVQ7Sh1BRPgeHxh/S0uUqVA3lxgmag2hcfVkR873B+3hBDQGoydwXjCCY+1h3W18uVANX2ZBw4kpBLrb7LtZ7ynnQXACB2ClhqkYAyASnD4P0fVS73O12+0WLTKkRGBvEc6yRujWO+WGAjqPDP9jhql6gkC+BKPJlEjdmeXI9bslXqrXm3G2//ODeG6g9B+mF+IB0uwopzqqLIeMPgHC9mnf/1vD9VaPCyhOBawQwJnfpuouFQ74wvEKFm1UjIOMPgHCtIA4RN/e7anRY+VUj0HW7k57UCUHYzVq1b7DyAwicdLFwnbNZAyjx1GoQ8LtXqPSJguAEVQQoMK0RgX73ChjcUBCc5GAdKDCtDYG+eqD+NxQEJ4eYhPNMRKBVBEI+P6ggAIEq0qorsF5DCAypB+4bVBBcCDEK15iIQEsIjPl6UEEAAGe0WnID1iWEQEg9cH9QQXCRM1pAgallBMbUA/UeJcj+p4S35wy0DB7r1jYC8O3Hj+4/HKvlaBdLHmRXS5DgtiUExrpWUs9RBZGb2NUSJLhtBYGu696YUpdJBHFdrWkGp2TKe4hATgRc1+redkoZJhEEhjgemQIn7ykdgSnjDr8Ot/yDc/vfffXRdv+x6/24hR+7PocVr5eHQCw5UIMoguABkgQoMNWGwBxyoI6TZrGGwHj1wScPd7uOnwoaAofnikIAA3IMEeYUajZBkBk/FzQHcj6TDoFu/x5vs3/XMY8cKOcigkhFqSaCBLelIDC3S9Uvf/QYpG8AxxyXDKHCc3kQgGp0v3r86M2/aOSvoiB+QagmPhrcT4mAlmr4ZVYniBgnUQQJbq0RsCCGlNmMIJIBiSJIcKuLwPIB+JTymBNECgGiYJ9Tw4IIt/MQSEMMKVsygkiG2GJ6eLN5uv+i/MXr/GUrHxnu30TAfcxw6XTtTbvTzmQhSL9oR3UhYfrYrOtYyIAfdHLfx13yDkMDuyIIMlQRURn/mlMcObO7lD1ua0Dg9LO2xy+ol0GEEIL/B4h6Q5w5R3beAAAAAElFTkSuQmCC;" parent="1" vertex="1">
          <mxGeometry x="908.61" y="226.25" width="40" height="40" as="geometry" />
        </mxCell>
        <mxCell id="BFcZCi9EVdHsKfas7D4n-54" value="&lt;span style=&quot;font-size: 16px;&quot;&gt;多模态嵌入模型&lt;/span&gt;" style="text;html=1;align=center;verticalAlign=middle;whiteSpace=wrap;rounded=0;" parent="1" vertex="1">
          <mxGeometry x="870.22" y="266.25" width="116.78" height="34" as="geometry" />
        </mxCell>
        <mxCell id="BFcZCi9EVdHsKfas7D4n-56" value="" style="shape=image;verticalLabelPosition=bottom;labelBackgroundColor=default;verticalAlign=top;aspect=fixed;imageAspect=0;image=data:image/png,iVBORw0KGgoAAAANSUhEUgAAAMgAAADICAYAAACtWK6eAAAAAXNSR0IArs4c6QAAAERlWElmTU0AKgAAAAgAAYdpAAQAAAABAAAAGgAAAAAAA6ABAAMAAAABAAEAAKACAAQAAAABAAAAyKADAAQAAAABAAAAyAAAAACbWz2VAAAOEElEQVR4Ae2ci5XcOA5F7ZkJxBtJw5lsJo2JZEORHMmE4n3wVNmyjkoSwS/YD+fQ+hHAwyXRn7LsT59oJEACJEACJOAh8NnjVNBHCsZiqHkJrL1Ka9UgggLfN0XaNY0EPATWh9M3HPVxHvIgUL1gfOcgg4p7wPaYYoQxhVI2BRn02AO294Y1gTLr5h5gmJPct3tAsQ+HMjYGN+h2g45yrrld8mdmAIH//zDsSCOB0QgIBNkHUSuGy3IaRJDRvnN8waCRwKgEBMLcTeJtEEVS+85BI4EIBAQiXU3iaRBLxuYABFooAgK1yU3iaZB/QmGhWBL4RUBwmtQkf/zyvXVmv3PQSCAygXeIl7sFpDSIpgS+K4DzSKADAWuSW5byIxa/e9xCykkBCHyBxls/atmkO6aYdLvrLgKueP4Nw440ErhLQB4TS+1DC3d3/z9SHx8Ut78XGBaHRgIlCCiC2MjdlxYj2xQRcoSYP40EahBQBM3Zm+abZQLvHAGalZ3OJHBNQDAlZ4+av9sUnt7k5ksjgRYEBEm8+3TJEWjOnsSak5S+JOAgIPDx7FXzcVvzhG6ldCQB/y/u4oGncPI0iPnRSKAXAc+eXTxiFU6eZJ5c9CGBUgRsszfZt55EWqpKxiEBJwGBX7EGSXkXy6mXbiTQlMDaKpunC6WVOOYhgRMCnp9+5Che6e8g61ES3iOBqARKN0hUDtRNAocE2CCHWHgzOAF7W7yIsUGKYGSQWQmwQWZdWdZVhAAbpAhGBpmVABtk1pVlXUUIsEGKYGSQWQmwQWZdWdZVhAAbpAhGBpmVABtk1pVlXUUIsEGKYGSQWQmwQWZdWdZVhAAbpAhGBpmVABtk1pVlXUUI/FUkSvsggpTvj7R2ThuPwApJz5cGdTx59xRFaxBBWdYYdqSNTUAgz8bT9HkS6RjpRywDbP9STDBosQjYF7XvGBJL9qdPkRrEINNiEwi3hlEaRGPvC6p/EBAcbYSxKA0S7itPmB3QXmiotYzSIO2XkRlJAAQiNIhwpaYiEGo9IzTIOtX2YDGhCERoEAO6hqJKsWcEQq1llAZ5/o3sGXg+i0Eg1FpGaRDF2q8x1p8qTwj8jWd68ny4R1EaxMAZXFpsAms0+ZEaxOB+xbAjLRaBFXI/Y9gxlEV7WXEFXRuKYfb274F/DkrgG3StjzGoxHNZ0RrkWY0+T3gkgZoEIv2IVZMDY5PAIQE2yCEW3iSBfwmwQbgTSOCEABvkBA4fkcAZge94mDrO4vEZCbQiIEhUZO/yO0irJWOe6QikdqDNp5HAKAQUQu7uYZubbHeDb+clJ6EDCVQksN2br87Vm/9VwLP73lz0I4FaBBSBX+1Ze3ZqUf8m/bQoPiSBDQHdnL89zm+/AmMvkL0y67pUO4uXGovzSaA7AX6K1X0JKGBkAmyQkVeH2roTYIN0XwIKGJkAG2Tk1aG27gTYIN2XgAJGJsAGGXl1qK07ATZI9yWggJEJsEFGXh1q606ADdJ9CShgZAJ81WTk1ZlDmzzKeB6fr3vYbbu3YtirH1tbcWFjaHv1gtfZ/aELorhmBASZFoyzvXLnmSKGjSHtTgH7OUMWQlFNCAiyLBj7PVHqWhHbxjDmKWwY8RTSjIAik2ev5PhYzu7mKaC7aApoRkCQacHw7JMSPorcNrqZp4huYpm4GQFBpp6Nsd+X2qzyXaK9kDvXuxC8nIyAop47+6DHHNPW1DxFNhXIZE0JKLJ59kRLH9PYzDyFNRPHRM0ICDItGJ790MNHobWJeYprIoxJmhEQZPLsg94+SwtCniJb6GKOdgQ8e2AUnyJNEvVVE8EesfGGMbs9X8PQxoUW2WCNNW/TCS70MXAob56vBOVV/B5RcGkL59EW3cfqtvpbmCJJdF5P/VaL287+mx5LkGpn8VJj7ecrbrzvb37A66+oea1YtyJ2Dc5Pzc/viHYtGFurkdfiV2FmDZI6tsWWPk/VMuv8pTTYTTzFeUluplUwUkwwWTHMt6QWQbyi5hFXVMAmmOLco2dWH+NRw0rxWiBOCghUxCipqYCkXyE8wn55lz0z4B49s/oYj9KmCJjLy3QJRmlTBMzVZv6CUcw8gool3wXyaJndZ4co+zKXl2YrOA8geJyrcTlPkfbUIyYtw73ZgmkeLbP7GJdSpgiUw8v8W5kiUY5WKSXUI6JU7n0cj5bZffaMcq5zWGlOYqfvAj+vZvMtYh4BRRIfBMkB4qkjgs8BJtcthZe3XvPtZTl7QkqI9kArkfcohuKmR8+sPsajlHkZaSkBzjgCP6/2xZnzNzdP8t8CFL6wojyaZvQphVYymJbSkBNHe+r3bKycYq98JQOGp5ZRffQKVMJzi+Wp0/xGsQVCPDVIbgGepLk5r/ytKC8QTz0j+VjdVn9J89ZXUkNuLEEATx3GM8s8SbMSJjgr5tqwIj06o/hYfTYEo4Z5OGgNIZkxjVFqLeaTZakJbT4tDgGFVM8ay4Al2mavUssfAxZLSWMTWAeU93ctTWyQWmTnjFttI2biWuFvo7ixQYojDRPwLYzSekLlKjQb5IoQn0ch8PyHWCl6L79IsEFScM41VxzlrA6f0C5skNDLR/EbAuvmvNgpG6QYynCBVodij48jjctFXF4XTmyQC0B8/JPA+vPsA52wQT7QYu9KTf3I1vNL8C7lXJeev5mci8D81ShKvLPONm90u1PHfo7mFLUPduc6Jx99+xBQpD1b26WPrKSsVzW8qs/83PYq6Nl9dzI6diWgyG6NsF1bu7b7o5tC4FZ3ynlWbSmJnnOzEtKZBBwEnnsv9bjcycVf0u9Q4pxRCWiGsOwPHVI70ubTSKAVAUUizx59+mTrfAZKOWYnZQASuEFAMSdlX+7nmn+27YPeuc5OygAkcEFA8fzOXjybc5Hi3uOzBK+e3YvMWSTgI6Bwe7X37t63GEXsbsLtvCKJGYQEDggI7m33mud8OYh7eoufYp3i4cNBCAh0JG/uA+3Zn1xtY3o6dOvPcxIoQUAQxLMX9z5aQsw2xj7BneutP89JIJeAIMCdfXc1R3OFHPlfJT16fhSH90jAQ0DgdLTHUu8tnuR3fFKF2HwaCZQgIAji2X9HPharih0lu7pXRQiDfigCgmqv9tnd5xarmt0VsZ1XTQwDfwgCgiq3+ynnXGsT84irrYnx5yUgKM2z5458tAWmo8RX91roYo45CVztrbvPtRWeu4K281ppY565CCwoZ7uPvOfaEotHZEt9zDUHAUUZnr2297E4TW0v4M51U4FMFp6AooI7++pqjsWpYn9VidouqLRL1S3T2i1z3cSK8O8FUth/X2SxmttV1x49byFSkGTBOMo/6z2rVzFmshJrpT2BeAqordeAeHTN4mP1z2CKInLXxGJ0NU8BNQUrgns0zeZjHCKbQnzumliM7uYpopZoQWCPnll9jEdUy10THaVwTyG1tBsUj55ZfZZaoCvHzV1H8x/GPJurlniPltl9arGuGTdnTbSmME9sTzGePHd8PFpm95E74Aaao9DiXZNloDp+SvEU89O54IkglkfL7D7GJZLlrIeMWKinoFp1eLTM7lOLdY24iqDe9TDfbhblfzVZuxEaM/FH4dHtb8nvLLun4+/E9cwROHn0zOqjHogdfbzr0FHydWpPUddR/TMWuHo0zeajfoRdPAVZPWugXdQmJPUUlRDeNVXh5dE1i8/iotbXSZxrZn5Dm2dTtShIkcSjLbqP1R3RFKJT2S+jFBrxdXcDbkMeA4dpbX1U9jxOW+iusKL/RegudtJlxAZ5FrjixAaNBKoRiPIxbzUADFydwFv1DBUTsEEqwmXo+ATYIPHXkBVUJMAGqQiXoeMTYIPEX0NWUJEAG6QiXIaOT4ANEn8NWUFFAmyQinAZOj4BNkj8NWQFFQmwQSrCZej4BNgg8deQFVQkwAapCJehfxAY5sVDz3qwQTzU6JNCYE2Z/Jjr8XGkuXZhg1wz4oz2BNb2KdMzpv4jF5tPI4EjAoqbd/eTzQ1hdwvazgtRGEV2IaDIut0rR+c2J4wdFXB1L0xxFNqFgCLrqz0kXRRdJP188twKSbWzeKmxOH9eAoLSbKwYZuuPP4P98arTz+5LsBoplwROCZx9irWeevIhCXwAAmcN4in/3eNEHxIYlUDpBhm1TuoigeIEBBHPft949cz8aCTwIQi8aoKz+8uHIMMiPwSBPy+qFDz/cjFn/9jm28e9KwaNBPYEBDf+i/H+OP4HR8FYMcKZQPHZd4uzZxquWgquScB+sjjbL/ZMawqoEVsQ9Kqos+daQxRjhiIgUHu2R46eaaQKF0eB26JDFRtpYQJotbXf7oWUcwlQ3w+JJjSlsFdz9Uc0/vGRCLzaC3fvd2d1992pBUqlkNq/H3HWQvEY5ncCo3BVyHr/XVry1QqPr8leHRwEOe92Pef1Z2Vf0BSjp5XaB9KziJTcismlimacNiytUQSjtSkSllpjaS0+J58BL1U447RhaWvW2krukx76f/JKfRcrxM+DP6vjiREQDMWgOQikNoilYJM4QHd2eeucP2x6T4OsqPb5SVTYwj+YcAlc77ee2j0NYnoVg01iJOKYNJTKvfGAbdBL/kL2HfE46jB4LFmTgxRcR4sV3hQVcGOPzaD1JivxhdP21TSmqIRNMiYDW5seltMk5julKapio4zDoOdGk4y9YL5Tm6I6G2yWfgysOQSjtykE3N0HNncY+9xIiT7yvD2O8jjyUIfAirD28ahijGICITZsD9hxa+vjwj79ep4/bvU9tGqQV1XKqwe87yawuj3bOwpSru3TMiMJkAAJkAAJ1Cbwf4i/H8GFqmC5AAAAAElFTkSuQmCC;" parent="1" vertex="1">
          <mxGeometry x="769.1578947368421" y="94.00421052631583" width="40" height="40" as="geometry" />
        </mxCell>
        <mxCell id="BFcZCi9EVdHsKfas7D4n-73" style="edgeStyle=orthogonalEdgeStyle;rounded=0;orthogonalLoop=1;jettySize=auto;html=1;exitX=0.5;exitY=1;exitDx=0;exitDy=0;entryX=0.25;entryY=0;entryDx=0;entryDy=0;strokeWidth=2;" parent="1" source="BFcZCi9EVdHsKfas7D4n-57" target="BFcZCi9EVdHsKfas7D4n-55" edge="1">
          <mxGeometry relative="1" as="geometry" />
        </mxCell>
        <mxCell id="BFcZCi9EVdHsKfas7D4n-57" value="&lt;span style=&quot;font-size: 16px;&quot;&gt;用户查询&lt;/span&gt;" style="text;html=1;align=center;verticalAlign=middle;whiteSpace=wrap;rounded=0;" parent="1" vertex="1">
          <mxGeometry x="742.0000000000001" y="134" width="102" height="30" as="geometry" />
        </mxCell>
        <mxCell id="BFcZCi9EVdHsKfas7D4n-93" style="edgeStyle=orthogonalEdgeStyle;rounded=0;orthogonalLoop=1;jettySize=auto;html=1;exitX=0.5;exitY=1;exitDx=0;exitDy=0;entryX=0.5;entryY=0;entryDx=0;entryDy=0;strokeWidth=2;" parent="1" source="BFcZCi9EVdHsKfas7D4n-63" target="BFcZCi9EVdHsKfas7D4n-50" edge="1">
          <mxGeometry relative="1" as="geometry" />
        </mxCell>
        <mxCell id="BFcZCi9EVdHsKfas7D4n-63" value="" style="rounded=1;whiteSpace=wrap;html=1;strokeWidth=2;" parent="1" vertex="1">
          <mxGeometry x="729" y="457" width="402" height="97" as="geometry" />
        </mxCell>
        <mxCell id="BFcZCi9EVdHsKfas7D4n-64" value="&lt;font style=&quot;font-size: 32px;&quot;&gt;检索&lt;/font&gt;" style="text;html=1;align=center;verticalAlign=middle;whiteSpace=wrap;rounded=0;strokeWidth=2;" parent="1" vertex="1">
          <mxGeometry x="890" y="490.5" width="99" height="30" as="geometry" />
        </mxCell>
        <mxCell id="BFcZCi9EVdHsKfas7D4n-65" style="edgeStyle=orthogonalEdgeStyle;rounded=0;orthogonalLoop=1;jettySize=auto;html=1;exitX=0.5;exitY=1;exitDx=0;exitDy=0;strokeWidth=2;" parent="1" source="BFcZCi9EVdHsKfas7D4n-64" target="BFcZCi9EVdHsKfas7D4n-64" edge="1">
          <mxGeometry relative="1" as="geometry" />
        </mxCell>
        <mxCell id="BFcZCi9EVdHsKfas7D4n-66" value="" style="shape=image;verticalLabelPosition=bottom;labelBackgroundColor=default;verticalAlign=top;aspect=fixed;imageAspect=0;image=data:image/png,iVBORw0KGgoAAAANSUhEUgAAAMgAAADICAYAAACtWK6eAAAAAXNSR0IArs4c6QAAAERlWElmTU0AKgAAAAgAAYdpAAQAAAABAAAAGgAAAAAAA6ABAAMAAAABAAEAAKACAAQAAAABAAAAyKADAAQAAAABAAAAyAAAAACbWz2VAAARbElEQVR4Ae2dC3bkKBJF23VqXxm1soxaWeKV5bznElNYJSGBECAUcU4kiE98LoSV9kx3//efiREwAkbACBgBI2AEjIARMAJGwAgYASNgBIyAETACRsAIGAEjYASMgBEwAkbACBgBI2AEjIARMAJGwAgcJfBx1IDtXyUgqzPxCRefttmaBKxA9tOWYCn7j+CZXZk9l3p0gaHPoO/HfRtMWbcUASuQ7yRlemTrC8CPTVPdNm6KzBcRn/3YNGVNKoE7F4hMsJ5T65+nx2Eah0ysaDKP804FImBE5ZuB7Z3FIXlfNHpnEFu5j1wgMiXPN4TvT0PWzAg4PLNg2FJNJgKjFYggr9G/MtW4vL8nJ1rDWc8+RigQAWArivNumRXLeWxPsyywTH1B36bVGChYC9SkUwKCuKwo2v9Q4Bko1KQTAoI4rDDaF8bS21o7uSO3DEOQtRVGn4UxLxa95Q1tlLTArxXGNQpj6ELp7a9YLIwnlO0VxAVBfgb9cDwY3t2V2crH9Dwfny3r6pF//dKuIsoIpqcCIUwWR0/ipmB4+X2fQ2Gfzy1E4JTqhUUk/qGTdogiac2Sh/qCvhsrY6DKpGguK4LIddLWXOmfsZhkEFDsaXGALASqTIpmeFFkSGXerZgLfJvsJFD7oO5WEFvHoFhArV0s9GkSISCYq3Uovigi4dgUCAhUoeRV42zoy2SBgGLs7AOwolgAnzhU45zowyQgoOifVRxWFAHogl2eGfWsc6NtExBQ6BmQrTDqXa+zzpB2by2K7EsXB22atCGgcGvnWZB9SZg8HJM+CCjCsLM9eBavQhBpRw7GYtvPIaAwW6pQ5JwQ+7SqCKsEOOkzPYtqRkDxfPS8+YPwFqLI0mDd4qi/JVni3GljeFFkeKRAuN/kmgQEYR85e+6ljWFFkdkRQDIsmXsl9jpwD7h3WDkCRoalcs/E7C7Mzp0X/J2p3GsyHoHcIuG+5vKjcASSaY//YI3L3Gvb+ibAszWZCOT8tFCjNzwBnnHONwsZjUwOhNEYWD7LBHJ+eMqyqWuOMpnUAtFrpmpRZxAQ7Em9HyyqplLydxBpmok5752A6z3ApfhKFsiS/a0x3Vpg80MRcFfLpnWBXI2XxVuXgNR196+3kgXy+Nd8dMRFZ21yRAL894tdSkoWSGrikrrB1huBKxPgXxxS/0ohV07YYk8mkHo/uL6ptHyDMPFn0+zNeU0CWtNZKV+tC0RKJWJ2jEDvBF4IMOcVqr0nZvEdJsAzzrkb3DOM5BYIIcgwFCyRJQK5xdG8QFp/xfIwWVziH6wdioAOlc2BZHjJj/yk4F454N+29kdAEdLRO9FfVpkRlSgQK5JM+B1uU8R0tDi4fxgpVSCEosNQuV8igpRL3oVhCJaEYkVyzWvB4uDZldRrkliIunSBEDJtyoIvG+qPgCKkkoXhbfWXaWZEvMw+qdKtZsZk284nIHBR+rxDe+dnUMnD62RQhKaVcjE32wQES2qc+XYkF1lRAxaLxAql7YUQuK951m2zLei9JjQrlIIHt9OUYF2LM94ZXv/LWsALC4UHaFKWgMActeXZwv0Y0hKiLxS2OgbOplkIvPdynk1BlHTeC1BfLIxHSyY4uC1Bfr2dIc9yGOkRLgFTGZtCBWryh4CgofZ8bjy7YSQVtL+0hFBbvW8Zhv52IsyVytxr86Y/+s3xjW1jSGryXE9R6LuxMhbGQRXo1UWQAJV5UVvzVcRAUWhqLNw3hKQeBNeHonhIhXf2esbIuKgC7U0EAVEVylipZzNJsc94BOpF0UnZz7VN5WdT79+d6/T4/D7c9EngnUqZx+W+Rv/7b/7vevLj0/Tu/6yD+A1BG449VsaD4a66/M8eaFcRNQ7mBf/vBOX6NVFMpNiytf3w4rkKdEkUg6lntWSn2tiPap7SHCmWf0D5U8jkGgQcwvw1KftDSK8F4uEqOlYonkafrUNYwxWGR93T7yA+pqVWMeiV809+mDQj4OD5E8qWarKDAL97pny/5Pojotic4s/WHufFMxNorig2pp5Drq8i+67yBllKVjHolfNPfpgUJ+Bg8bZviysXiL8JOnXY+r4VywQls3HY93vay75JAQJ8/fb0+hTEoxkxpeYwynqen0DPFIXxVF5nxrNp+2Nzxf4FOYB/wbzb7+LQSp12P9DK1L9r46bEa78lWBypUvKOpvouup4FQgApyj2tROBYoTlxp+TYw1rmSJVJ0VQXhcccFtUDDR2O8DtImE9K32ExNRTBA5XygAo7FxI3xfqJ1vd9O01Zk0Kg5OvL/4RK8c+1fM0rOx2LTLH5lo8sIIp8fZ7/4QIXLACK+/r8206P3TWCiHg/cqTkHU32X9J5boEw6F9Qx87FRTbiX5p3kT2xuci27qbeByIqeUcPhHF8KwuEIHKUe03GJKBIK+dO+D3DUOEl90nltNxvMhYBRTo5dyHcMwwRXvAwsZw+bZiMQUCRRs4dmO8Zgway4OWeJ5f7LMNQuWciJe/CMARLQmFh6TBk7pOIINXS92AYeqXBWJFc62oowuWZldZrUYhEe0aBeNga8WtTbQkI3J959m2zK+j9TEgsFNrXgvGaqWMEBNvPPnOe+zBSAxaB6aTDgLNE+iXws9/QViN7zmZ09myPRqBLArXeIHyLzFW7JGJBGYGAQMsC8QWjiIdqYgS6I9BDgfhCYauTdgfKArongd4KxIrlnvew26xzCiRnT3jxc/sKilQTI1CNQOpl53qKQnMveql9jIEqUBMjcAqB3AJhMAJN3V+qONbsMB6dVNCa3JBAyX9aixdKEhg6rOU/SRiK4uEZDnTad4jrcxYbxyju6zPvQ7Htkbc1e9f8DLINRTbybtQUno3WdLjHFyG8EzQGTRPspPhsuTaWL9L9EsVn7Rj/eD73s3ZOe1jvyvjHrlX1FylcfkB/13dtHo3AXwK9FoiPUNGxQvE0rK1OoPcC8UAUHSsUT8PaagSuUiAeiKLjC8W+fnkq1p5G4GoF4kEoOlRfLOiaGIHyBH6WN1ndosIjVSZ9TC2a4cRdNKMz4parseCf1lL/nHdmjgrj1NSYzlpPPluiWBDzv7X/TvPkucZqD+tdrFp/xZJdUeYtUmyj8mvYLyh/Z3FQEyOwm8AIX7H2JOuwiOpF0KFSnn8a+zQC/xJoXSC8nO7fsE4foU8qRb8+//4Ow8cHVNgxuTeB1gUiwK+TomkqDt6pc5FpwLd8ZAFR5OvTPoYl0LpACNa/RVynlH1cvl0KUxYG52NuYY0NdU6ghwIhIl8kneNaDc8tzCyNLSyzoZ4JtP4rlmcj6Lz8g7VGoBcCvRQIeQhUoSZGoBsCPRUIofCrlr1JurkeFkhvBcITEegbqlATI9CUQI8F4oHwbaL+wVoj0IJAL3/FWsudRfKAfkIVarKfgGIp2W1J7f8LzmsjoNrxbIRTbpqJv09ULRdqt5aYY4xhSuCyYcv74bpaonDk/a61sjOYV8QW54pIz1+x5gk+MUCoOp+w50UCbnH030Fy7UlcT8FcqUA8NysUT2K7ddtLqq54bHjj16uu5IoF4gGGhaJ+0NpvBPi725bI1oKC8zV9FQn7ygXiAbBQwmLx49Yu/58vl7jI0mDhsT0+tLDPw+ZGKJAQgi+UFwY1nLhp3+3Mm9zOFjnbwRn2RysQz4iHMS8Wjt1RXCdJPzbi6O73j414k6f5U/t9AVXESBVob6IIKMYwJ17ZsOn95dhO2eP9rLWMM0VeWLxmi3PdSSzgpUR8EopMluZrjTEOxkBtLYoAYnnnxhez6eck1/iOfYo13s9au8PMtyWviE3OFZGfRawcM6LT9ucxM9m7BTupFB+DQ9//BYh96pXFIXjZSIC5u401Z00P//WK4Fi17wTl+rkoBlJstFjLuBmnV0HfK7qHRLE7llOucdmw631y3Rni7a+1muH0hT1r9jhXRHp4g4SJaPDwDPo9dQXBUL1sxemmhXwj6dS/U7Mn5z1rmjDrrUAIYQ5r6wI2AZfgVBLWnrXUwTBVoDEhaxdbcMJc11+veiwQfwbqO1N79UKZpVP9kRdRNrxynuqgpWTr3LSUozPs9FwgPt85wC3gfp+13wm474+rTyXfIrrq5c9E128PhvhjI4GephXBUD+g3YNFjD2K2xGUYA21hFz+h9mVCiQ8MMWDLxQrlpBMvL+XVYmLzTPaEt1a0Hr+qgXiuREw1YoFEHaI27GGS2RS9nNlq8j2Fmuu/+72KSJ6J+pZSQgMKzQ1njPXvxDPligWxGLY2r9nfstH6F/2GFxYs8fHwrakIfIMYw37nCsiV3+DrEFwmFAo3yy/oPxpdbufWMh5SdzS4MrYc2U8NqyY3Np3y7MQgAmreE+fe1qIwin1Bd0TZ4k19LUligUxX1v7984zlpifcE73Gp3WhXvX+okmF5e/MLpmn3NF5GcRK/lGntjq8rdn79TZTsEzlfKACjsDC3+Cy878eEYU/fqMf+y5mLd8e3hsb3RSVfzmDlvGpoHyAlBTc+R67tsSxYKY7a39KfOMJ+ZrPqcR44K5vfYiZpKmYv44V0RKv0EcopLEyJjMR+KeWssdHFFjIsFk2A+G///v9grHWvdT3iKM9Tkp9zmoF46Lf9hob/32IBuBvjOURWLy520V41eaEbnH/JWc08LBx2LnXLeSC1W7zaheYGQQ41c6EtnwF4slda507K9I7JwrIj+KWPluxH1/3P30xErdvdoWliDgYKTG154aPkrwqGJD4CX1p0u4XqtE2acT5h6ymPfPivq14XceR8ozczpDYjFzrmtRRJcCcb62+wRPor/F7SS32b87zs9t/sx8zhLekbk//8y57iWWgE9kq9XusywbIPONMSnr7bs12fAdi2tp7vXdfPEn2l/yy7GzfRdJRiIJrCW2NK5FormGEea6xMCPnZ3Fln8fx1b7OjtQ2KePtThq+C+SokaSWEtubZy2RhdFgmv5c7yGCJzEYtia0xpBwscrEifnLiOxRLZgL83rZTJPD5S5LeXsx9It5u/YisXH5NsXXEm+u+Sd9Od9z1vOXUpiycyT2/uslyKwL1jmFMt/n5WyqxgTdS2uF+YEWlvoNxZT7XgO+4sltJbonnFFZHI4uj4MKMKI5dxDlIIgvLaMJ3afOHdJiSUVuxh75mhbL0nlb9CMP5br35XW43mvseJcEflRxMp+I7+w1O1fnrRSsPoJJTSdFI2JEbgeAUXIa9Vfepy+qFcQRZCx/K+QQ60YXxFWnLu8KDKIXYYz5giOfqk9iiKoWN49xtwqJp7lGivODSGCLGKJrgEoNU7fOqmgbS2KAGK5tY6vJ/88uzVWnBtKFNmsJVt7nHAZD1WgNUXhLJZvzVh698VzWmPFuSLys4iV40YUJrw+j5s7ZEGwm0oJY3FfI3//uyF89GO+5ZjJQAR6KRCPVKdOeDH9XOtWpgB8y8elOB0nFuQTY7owbkNGIIuAYtd7IH3toLCV8w4Tt1lCnmv3Yw/rXaBq/+8gu4KaFinaD6j902gTEGvqE+i5QDwNRccXivOD1hqBGgR6+x0klrNOk759xhbbnBEoQeAKb5B5nooBqr1VAMHkXAJXeoMskdBgkP0HVKAmRqAIgasXSAhBgwfft69hARTrphMYqUDC7HV6YOv79naZoFizn8CoBRIS0PABfZnUCmYGxh7/JXCHApln7TBA9SLoUClWNH842OdE4I4FMj98hwHqXAQDVC9WPJ7EjVorkPXDdpiirokEE2GfwyymuXzOBzKe3xl7trbwz+Vnyxlxnx3zl30rkHzMLtga9oNh616dwI+rJ2DxG4EzCViBnEnXbF+egBXI5Y/QEjiTgBXImXTN9uUJWIFc/ggtgTMJ2F+xzqSbbtulb7nEjt+VoxyVY2WM5s4IGAEjYASMgBEwAkbACBgBI2AEjIARMAJGwAgYASNgBIyAETACRsAIGAEjYASMgBEwAkbACBgBI1CGwP8Au+Y1lX+U0nYAAAAASUVORK5CYII=;" parent="1" vertex="1">
          <mxGeometry x="1043" y="321.25" width="53" height="53" as="geometry" />
        </mxCell>
        <mxCell id="BFcZCi9EVdHsKfas7D4n-67" value="&lt;span style=&quot;font-size: 16px;&quot;&gt;向量数据库&lt;/span&gt;" style="text;html=1;align=center;verticalAlign=middle;whiteSpace=wrap;rounded=0;" parent="1" vertex="1">
          <mxGeometry x="1010.5" y="370.25" width="118" height="30" as="geometry" />
        </mxCell>
        <mxCell id="BFcZCi9EVdHsKfas7D4n-69" value="" style="shape=image;verticalLabelPosition=bottom;labelBackgroundColor=default;verticalAlign=top;aspect=fixed;imageAspect=0;image=data:image/png,iVBORw0KGgoAAAANSUhEUgAAAMgAAADICAYAAACtWK6eAAAAAXNSR0IArs4c6QAAAERlWElmTU0AKgAAAAgAAYdpAAQAAAABAAAAGgAAAAAAA6ABAAMAAAABAAEAAKACAAQAAAABAAAAyKADAAQAAAABAAAAyAAAAACbWz2VAAAKcklEQVR4Ae2dTXrbRgyGRaU3yJNVNlnZPoGbXeSj9CSxT9KnJ4myS30C26suml1yBbEDxlQlSxRpDoYAqJcLy/wbAC/mmx+RIhcLFghAAAIQgAAEIAABCEAAAhCAAAQgAAEIQAACEIAABCAAAQhAAAIQgAAEIAABCEAAAhCAAAQgAAEIQAACEIAABCAAAQhAAAIQgAAEIAABCEAAAhCAAAQgAAEIQAACEIAABCAAAQhAAAIQgAAEIBCVQGXp+NXVx9Vis1mJD3VVfbL0Bds+CFR1/XXryXK5fnj4tt6uG/wzuUBEFHVdf25ireuVQcyYDEYgVdI7cfnh6f52atcnE8hWGIhi6hzPyp6IZUqhFBcIwphV/XQRjIhEHJlCKG9KRtyIY7P5kmx8KGmHss+OwCpFvHr39n314+f3dcnoiwnk6uL6Ns01/izpPGWfPYHiIikyxGrEsVj8moiffQ4BUJxAVa0fH/++KWFHvQdBHCXSRJk9BD6UGm6pCgRx9KSR3SUJFBluqQ6xLi+u65IEKBsCfQSq5fJG8+Liss/g0P3Seww9luMgUIrA9iK0kgE1gaSug0m5UlIoJoNAuhAtlxcyStg7VUUg9B57TFkxJqDZi6gIhN7DuEZgfp+AYi+SLRB6j/3csOaDgFYvki0QblP3USHw4gUBpZtiswWyUHLkRXisQiCbgMZkPUsgGg5kU6AACHQReP4xXtfuIduzBNL+GnCIIY6BQEQCeQKJGDE+nw0BjfkxAjmb6kKgYwhkCURDoWOc5hwITEUgSyBTOYkdCFgRQCBW5LEbggACCZEmnLQigECsyGM3BAEEEiJNOGlFAIFYkcduCAIIJESacNKKAAKxIo/dEAQQSIg04aQVAQRiRR67IQggkBBpwkkrAgjEijx2QxBAICHShJNWBBCIFXnshiCAQEKkCSetCCAQK/LYDUEAgYRIE05aEUAgVuSxG4IAAgmRJpy0IoBArMhjNwSB30J4uetkeh+drFZVddc+l6t5eETkJzymmKq6/rpYLtfbmCK/TqLNkcT0vETNURiBdLw5aN0mQD5DvQJORJFEfuRtSG1Mt9FiSq8ru+t7d3moHKUE+B9iSUUa+FotSY4cm7qXtpJJHXO3SEWSt7IeEceBr01M6fiDHZ42tDlK/Pvckngen+4rYdB3rIf9yc/xy+Xl719KPrxaIPa1SF3ee22phor9WFyleR+z2bfNdY6ScHNfD+22B8kBL0lthOWsJ2lievi27qt0XfubeVfXTqPtYxswcVfOFSZGrg8y61YgOeDbyD1VqFzBS0wyJPNUoTR88diQtfVHPl0KRAO8BOepQmkIvolJxvkOekYNwUs8snhqyH559P9flwLRqkxNmPLVqfWiXKGbr4StY1K033xZocxIyz2XAtEKTsoZ8k2Rpr1jZalXaA+i9+DDMdjK29wJRGt4tcfJaeu052OwFe2GR70RUeLpTiBKcbkqRnXImCLTrpyvhlWiwXHaI52FQKxbJ97lOECCCu8THGDl1Ye4E0iJl/LUke9rOpJSc8FFvu/tCM9Tm9wJpOSV+VMgSu7Teqn91kcHra22SEs0jFteGf/4E0gKRhO+ZlkZnOd3qrZInfZKLgXS3vKtUqu0EznGqZR8TaF6GDJqtvhy39wYrFOc41IgUgE0KpSnGxa1hlluKpOIXqliexB8l9hcCkSc1ahQrsArVChPgm9ypNCQaYmsq4LnbncrEJmsj4UnvU9za3guHeXzm55xZKsrMbkS/DOberP5MjpPiYXHmHbT7lcgyUuBd3lxXb8mAXKsJM3rt2FNTOl3NK8ZQorYm5h2M+fof4npVTl6bsC8i0MQpzs7xi9T/oCnvQXl2FXptrI1w7LU84yPaNozm5jSFeRjV8a3MYnYAy19MU2ao3TFP/cHU2EEclBH2tsdAgniIIbdDW08so2YdsmM/19BIGEe2nBAaS6VqA1sbvFIXDOIyfUcpK07fELAigACsSKP3RAEEEiINOGkFQEEYkUeuyEIIJAQacJJKwIIxIo8dkMQQCAh0oSTVgQQiBV57IYggEBCpAknrQggECvy2A1BAIGESBNOWhFAIFbksRuCAAIJkSactCKAQKzIYzcEAQQSIk04aUUAgViRx24IAggkRJpw0ooAArEij90QBBBIiDThpBUBBGJFHrshCGQJxPq9GyEI42RoAlkCCR05zs+egEYDnicQp6/Nmn3mCXAyAnkCmcxNDEHAhkDWkxXFZXl2ro3rWIXAaQKPT/fZ9Tu/B9l9ZOZpf9kLgXAEsgVSVdVduKhxePYEUtehUi+zBXLsyeSzp0+A/gkofYGULRAhpaVW/9TxMAIBqY9aDXcqS2dhsq7DkVLyCWhMzlsvVHoQKYxepEXKpyUB7Xqo1oMIlCnfOGWZBGz7JaDZe0iUaj2IFJb7uispgwUCYwlUy+XN2HO7zlMViBgp4WSX82yHQEtAhlZaE/O2TPl8s7ui8f+PH//+8+7texm6rTTKowwI9BFoxPF0f9t33Jj9UpGLLM17vYO9obUICAotSkBGLCV6jtbpYgJpDTBxb0nwqUog3eIkd3GUFIf4qz7Eegnh58/vfzHkekmF9RwCMqRK31b9IcP5nHKGnFu8B9l14uri+jbd+vt5dxv/Q2AoARHGQ6G5RpcPkwqkdULmJ4vNZoVYWiJ8dhKYaCjVZd9EIC+daQQjG5NoXu6bw3pdVZ8WdT2r2KQ1L5KbnZsMS88vhvjvQiBDHI1+zKyGl6lVP5eLwuoXCqNX5FL+y9i5WKtbymnK1b3VBJ6nCSCS03w87qUHmTgrIpLmhjp+qjwx+XHmEMg4btlnyRieIVc2xuIFIJDiiLsNMOTqZuNlDwIxzgQiMU5Aj3kE0gNoit3MS6agPM4GAhnHrchZzEuKYM0qFIFk4dM/mSGXPtOcEhFIDr1C5yKSQmBHFItARkCb4hTmJVNQ7reBQPoZmR7BvMQUP7ea2OIfZp0h1zBOJY6iBylBtUCZiKQA1AFFIpABkLwcwrxk+kwgkOmZZ1tkXpKNcHABCGQwKl8HMuSaJh8IZBrORawgkiJY9wpFIHs44q0wLymbMwRSlu9kpTMvKYMagZThalIqQy597AhEn6lpiY1ICrwGwDQoQ+MIxBB+KdPyPCl+965DF4HocHRZCvOS/LQgkHyGrktgXpKXHgSSxy/E2cxLxqcJgYxnF+pM5iXj0oVAxnELexbzktelDoG8jtcsjmZeMjyNCGQ4q1kdybxkWDoRyDBOszyKeUl/WhFIP6PZH8G8pDvFCKSbzVntYV5yPN0I5DiXs9zKvOQw7QjkkMlZb2Fesp9+BLLPg7VnAsxLfoFAIEiikwDzkgUPjuusHexoCJz7vIQeBCH0EjjneQkC6a0eHNASYF7SkuATAicIXF19XJ3YzS4IQAACEIAABCAAAQhAAAIQgAAEIAABCEAAAhCAAAQgAAEIQAACEIAABCAAAQhAAAIQgAAEIAABCEAAAhCAAAQgAAEIQAACEIAABCAAAQhAAAIQgAAEIAABCEAAAhCAAAQgAAEIQAACEIAABCAAARcE/gOea+L37fJ+6QAAAABJRU5ErkJggg==;" parent="1" vertex="1">
          <mxGeometry x="886.0005263157896" y="741.2468421052633" width="40" height="40" as="geometry" />
        </mxCell>
        <mxCell id="BFcZCi9EVdHsKfas7D4n-70" value="&lt;font style=&quot;font-size: 16px;&quot;&gt;回答&lt;/font&gt;" style="text;html=1;align=center;verticalAlign=middle;whiteSpace=wrap;rounded=0;" parent="1" vertex="1">
          <mxGeometry x="924" y="743.75" width="64" height="30" as="geometry" />
        </mxCell>
        <mxCell id="BFcZCi9EVdHsKfas7D4n-92" style="edgeStyle=orthogonalEdgeStyle;rounded=0;orthogonalLoop=1;jettySize=auto;html=1;exitX=0.5;exitY=1;exitDx=0;exitDy=0;entryX=0.848;entryY=0.023;entryDx=0;entryDy=0;entryPerimeter=0;strokeWidth=2;" parent="1" source="BFcZCi9EVdHsKfas7D4n-67" target="BFcZCi9EVdHsKfas7D4n-63" edge="1">
          <mxGeometry relative="1" as="geometry" />
        </mxCell>
        <mxCell id="6yVhWHThJ1yz743O0lcE-4" value="&lt;font style=&quot;font-size: 30px;&quot;&gt;&lt;b&gt;多模态RAG&lt;/b&gt;&lt;/font&gt;" style="text;html=1;align=center;verticalAlign=middle;whiteSpace=wrap;rounded=0;" vertex="1" parent="1">
          <mxGeometry x="827" y="812" width="201" height="30" as="geometry" />
        </mxCell>
      </root>
    </mxGraphModel>
  </diagram>
</mxfile>
